<?xml version="1.0" standalone="no"?>
<!DOCTYPE svg PUBLIC "-//W3C//DTD SVG 20010904//EN"
 "http://www.w3.org/TR/2001/REC-SVG-20010904/DTD/svg10.dtd">
<svg version="1.0" xmlns="http://www.w3.org/2000/svg"
 width="260.000000pt" height="260.000000pt" viewBox="0 0 260.000000 260.000000"
 preserveAspectRatio="xMidYMid meet">
<metadata>
Created by potrace 1.14, written by Peter Selinger 2001-2017
</metadata>
<g transform="translate(0.000000,260.000000) scale(0.100000,-0.100000)"
fill="#000000" stroke="none">
<path d="M666 2324 c-196 -38 -338 -113 -472 -249 -90 -92 -152 -201 -178
-315 -19 -81 -14 -233 9 -310 22 -73 78 -178 121 -228 19 -22 34 -46 34 -52 0
-16 -97 -163 -143 -218 -21 -24 -37 -54 -37 -67 0 -71 51 -114 128 -109 167
12 284 42 456 116 59 26 75 29 125 23 334 -40 667 84 838 313 102 137 137 233
138 382 0 147 -20 224 -87 338 -38 65 -163 195 -228 239 -98 65 -250 123 -375
142 -86 13 -248 11 -329 -5z m304 -191 c25 -3 47 -7 50 -8 3 -1 21 -5 40 -9
50 -12 151 -59 204 -96 131 -89 218 -231 229 -370 9 -111 -47 -251 -138 -344
-158 -164 -367 -224 -661 -192 -71 8 -73 7 -192 -43 -66 -28 -135 -54 -152
-58 l-32 -6 31 58 c49 91 39 174 -29 252 -105 119 -145 259 -113 396 50 220
269 393 533 423 30 4 56 7 57 8 5 4 128 -4 173 -11z"/>
<path d="M1806 1767 c4 -28 8 -59 10 -67 1 -8 3 -29 3 -47 1 -30 3 -31 54 -38
355 -49 601 -352 512 -632 -22 -71 -60 -138 -102 -182 -70 -74 -82 -163 -33
-256 17 -31 30 -59 30 -60 0 -7 -135 43 -219 80 -79 35 -87 36 -145 29 -33 -5
-113 -8 -176 -8 -197 1 -352 60 -482 184 l-63 61 -50 -13 c-27 -7 -52 -13 -55
-14 -3 0 -24 -4 -47 -9 -24 -4 -43 -9 -43 -11 0 -13 55 -86 96 -130 186 -194
465 -291 759 -262 91 9 91 9 176 -27 151 -65 371 -117 461 -110 68 6 108 42
108 99 0 24 -33 79 -71 119 -33 35 -120 180 -111 186 51 37 143 207 167 308
18 75 13 230 -10 307 -84 284 -380 506 -718 540 l-58 6 7 -53z"/>
</g>
</svg>
