<svg width="565" height="336" viewBox="0 0 565 336" fill="none" xmlns="http://www.w3.org/2000/svg">
<g clip-path="url(#clip0_206_588)">
<path d="M84.2 152.3C84.2 73.7 127.3 10.1 276.8 10.1C426.3 10.1 480.3 73.7 480.3 152.3C480.3 230.9 426.3 294.8 276.8 294.8C127.3 294.8 84.2 230.9 84.2 152.3Z" fill="#E5E4E7"/>
<path d="M139.7 138.5L190.4 71.3C191.4 71.1 192.6 70.9 194 70.7C195.3 70.5 196.5 70.4 197.6 70.4C199.2 70.4 200.8 70.6 202.2 71.1C203.7 71.6 204.8 72.4 205.8 73.6C206.7 74.8 207.2 76.6 207.2 78.9V139.9H224.6C224.9 140.5 225.3 141.3 225.6 142.3C225.9 143.3 226.1 144.4 226.1 145.7C226.1 147.6 225.6 149 224.7 150.1C223.8 151.1 222.4 151.7 220.7 151.7H207.1V177.8C206.5 177.9 205.7 178.1 204.6 178.4C203.5 178.7 202.3 178.8 201 178.8C198.6 178.8 196.7 178.3 195.4 177.2C194.1 176.2 193.5 174.6 193.5 172.7V151.6H143.2C142 151 141 150 140.2 148.5C139.3 147 138.9 145.3 138.9 143.4C138.9 142.4 139 141.5 139.2 140.7C139.2 139.9 139.4 139.2 139.7 138.5ZM193.7 139.9L194 85H193.7L155 139.9H193.7Z" fill="#848286"/>
<path d="M282 179.6C273.9 179.6 266.7 177.6 260.5 173.6C254.3 169.6 249.4 163.5 246 155.3C242.5 147.1 240.8 136.8 240.8 124.4C240.8 111 242.8 100.4 246.7 92.4C250.6 84.4 255.8 78.6 262 74.9C268.3 71.2 274.9 69.4 282 69.4C289.2 69.4 296 71.3 302.3 75C308.6 78.7 313.7 84.6 317.6 92.7C321.5 100.8 323.4 111.4 323.4 124.5C323.4 136.8 321.7 147.1 318.2 155.2C314.7 163.4 309.9 169.5 303.7 173.6C297.4 177.6 290.2 179.6 282 179.6ZM309.1 124.4C309.1 114.1 307.9 105.7 305.4 99.4C302.9 93.1 299.6 88.5 295.6 85.6C291.5 82.7 287 81.2 282 81.2C277.1 81.2 272.6 82.7 268.5 85.6C264.4 88.6 261.1 93.2 258.7 99.6C256.3 106 255 114.2 255 124.3C255 138.2 257.4 148.9 262.1 156.4C266.9 163.9 273.5 167.6 282 167.6C290.6 167.6 297.3 163.9 302 156.4C306.8 149 309.1 138.3 309.1 124.4Z" fill="#848286"/>
<path d="M339.3 138.5L390 71.3C391 71.1 392.2 70.9 393.6 70.7C394.9 70.5 396.1 70.4 397.2 70.4C398.8 70.4 400.4 70.6 401.8 71.1C403.3 71.6 404.4 72.4 405.4 73.6C406.3 74.8 406.8 76.6 406.8 78.9V139.9H424.2C424.5 140.5 424.9 141.3 425.2 142.3C425.5 143.3 425.7 144.4 425.7 145.7C425.7 147.6 425.2 149 424.3 150.1C423.4 151.1 422 151.7 420.3 151.7H406.7V177.8C406.1 177.9 405.3 178.1 404.2 178.4C403.1 178.7 401.9 178.8 400.6 178.8C398.2 178.8 396.3 178.3 395 177.2C393.7 176.2 393.1 174.6 393.1 172.7V151.6H342.8C341.6 151 340.6 150 339.8 148.5C338.9 147 338.5 145.3 338.5 143.4C338.5 142.4 338.6 141.5 338.8 140.7C338.8 139.9 339 139.2 339.3 138.5ZM393.3 139.9L393.6 85H393.3L354.6 139.9H393.3Z" fill="#848286"/>
<path d="M132.8 135.1L183.5 67.9C184.5 67.7 185.7 67.5 187.1 67.3C188.4 67.1 189.6 67 190.7 67C192.3 67 193.9 67.2 195.3 67.7C196.8 68.2 197.9 69 198.9 70.2C199.8 71.4 200.3 73.2 200.3 75.5V136.5H217.7C218 137.1 218.4 137.9 218.7 138.9C219 139.9 219.2 141 219.2 142.3C219.2 144.2 218.7 145.6 217.8 146.7C216.9 147.7 215.5 148.3 213.8 148.3H200.2V174.4C199.6 174.5 198.8 174.7 197.7 175C196.6 175.3 195.4 175.4 194.1 175.4C191.7 175.4 189.8 174.9 188.5 173.8C187.2 172.8 186.6 171.2 186.6 169.3V148.2H136.3C135.1 147.6 134.1 146.6 133.3 145.1C132.4 143.6 132 141.9 132 140C132 139 132.1 138.1 132.3 137.3C132.4 136.5 132.6 135.8 132.8 135.1ZM186.8 136.5L187.1 81.6H186.8L148.1 136.5H186.8Z" fill="#FFCC10"/>
<path d="M275.1 176.2C267 176.2 259.8 174.2 253.6 170.2C247.4 166.2 242.5 160.1 239.1 151.9C235.6 143.7 233.9 133.4 233.9 121C233.9 107.6 235.9 97 239.8 89C243.7 81 248.9 75.2 255.1 71.5C261.4 67.8 268 66 275.1 66C282.3 66 289.1 67.9 295.4 71.6C301.7 75.3 306.8 81.2 310.7 89.3C314.6 97.4 316.5 108 316.5 121.1C316.5 133.4 314.8 143.7 311.3 151.8C307.8 160 303 166.1 296.8 170.2C290.6 174.2 283.3 176.2 275.1 176.2ZM302.3 121C302.3 110.7 301.1 102.3 298.6 96C296.1 89.7 292.8 85.1 288.8 82.2C284.7 79.3 280.2 77.8 275.2 77.8C270.3 77.8 265.8 79.3 261.7 82.2C257.6 85.2 254.3 89.8 251.9 96.2C249.5 102.6 248.2 110.8 248.2 120.9C248.2 134.8 250.6 145.5 255.3 153C260.1 160.5 266.7 164.2 275.2 164.2C283.8 164.2 290.5 160.5 295.2 153C299.9 145.6 302.3 134.9 302.3 121Z" fill="#FFCC10"/>
<path d="M332.4 135.1L383.1 67.9C384.1 67.7 385.3 67.5 386.7 67.3C388 67.1 389.2 67 390.3 67C391.9 67 393.5 67.2 394.9 67.7C396.4 68.2 397.5 69 398.5 70.2C399.4 71.4 399.9 73.2 399.9 75.5V136.5H417.3C417.6 137.1 418 137.9 418.3 138.9C418.6 139.9 418.8 141 418.8 142.3C418.8 144.2 418.3 145.6 417.4 146.7C416.5 147.7 415.1 148.3 413.4 148.3H399.8V174.4C399.2 174.5 398.4 174.7 397.3 175C396.2 175.3 395 175.4 393.7 175.4C391.3 175.4 389.4 174.9 388.1 173.8C386.8 172.8 386.2 171.2 386.2 169.3V148.2H335.9C334.7 147.6 333.7 146.6 332.9 145.1C332 143.6 331.6 141.9 331.6 140C331.6 139 331.7 138.1 331.9 137.3C332 136.5 332.2 135.8 332.4 135.1ZM386.4 136.5L386.7 81.6H386.4L347.7 136.5H386.4Z" fill="#FFCC10"/>
<path d="M140.771 192.17V212.253H144.156V192.17H140.771ZM142.779 195.154H146.824C147.991 195.154 148.928 195.431 149.636 195.986C150.344 196.521 150.697 197.325 150.697 198.396C150.697 199.467 150.344 200.28 149.636 200.834C148.928 201.389 147.991 201.666 146.824 201.666H142.779V204.65H146.824C148.297 204.65 149.569 204.401 150.64 203.904C151.711 203.388 152.543 202.661 153.136 201.724C153.748 200.786 154.054 199.677 154.054 198.396C154.054 197.114 153.748 196.014 153.136 195.096C152.543 194.159 151.711 193.442 150.64 192.945C149.569 192.428 148.297 192.17 146.824 192.17H142.779V195.154ZM159.05 208.351C159.05 207.892 159.164 207.5 159.394 207.175C159.623 206.83 159.958 206.572 160.398 206.4C160.838 206.209 161.383 206.113 162.033 206.113C162.837 206.113 163.544 206.218 164.156 206.429C164.768 206.62 165.371 206.936 165.964 207.375V205.74C165.811 205.549 165.533 205.329 165.132 205.08C164.73 204.832 164.223 204.612 163.611 204.42C163.018 204.229 162.339 204.134 161.574 204.134C160.503 204.134 159.537 204.306 158.677 204.65C157.816 204.994 157.137 205.501 156.64 206.171C156.162 206.821 155.922 207.643 155.922 208.638C155.922 209.441 156.114 210.139 156.496 210.732C156.879 211.306 157.414 211.755 158.103 212.081C158.811 212.387 159.623 212.54 160.541 212.54C161.46 212.54 162.292 212.387 163.037 212.081C163.783 211.755 164.376 211.296 164.816 210.703C165.256 210.091 165.476 209.365 165.476 208.523L165.017 207.003C165.017 207.787 164.864 208.408 164.558 208.867C164.252 209.326 163.831 209.661 163.296 209.871C162.76 210.082 162.158 210.187 161.488 210.187C160.972 210.187 160.532 210.12 160.169 209.986C159.805 209.833 159.528 209.623 159.337 209.355C159.145 209.087 159.05 208.753 159.05 208.351ZM158.39 202.527C158.6 202.393 158.897 202.23 159.279 202.039C159.681 201.829 160.14 201.647 160.656 201.494C161.192 201.341 161.775 201.265 162.406 201.265C163.133 201.265 163.745 201.437 164.242 201.781C164.759 202.106 165.017 202.575 165.017 203.187V212.253H168.058V202.843C168.058 201.963 167.819 201.217 167.341 200.605C166.882 199.993 166.241 199.534 165.419 199.228C164.596 198.903 163.64 198.74 162.55 198.74C161.364 198.74 160.312 198.912 159.394 199.256C158.476 199.601 157.72 199.954 157.127 200.318L158.39 202.527ZM167.284 192.715L164.673 191.424L160.369 196.014L162.119 197.019L167.284 192.715ZM170.95 213.142C170.988 214.29 171.284 215.303 171.839 216.183C172.394 217.063 173.178 217.742 174.192 218.22C175.205 218.717 176.42 218.966 177.835 218.966C179.04 218.966 180.159 218.708 181.192 218.191C182.225 217.694 183.057 216.929 183.688 215.896C184.338 214.863 184.663 213.553 184.663 211.966V199.056H181.622V211.966C181.622 212.96 181.431 213.773 181.048 214.404C180.685 215.036 180.207 215.504 179.614 215.81C179.021 216.116 178.409 216.269 177.778 216.269C177.032 216.269 176.382 216.126 175.827 215.839C175.272 215.571 174.842 215.198 174.536 214.72C174.23 214.261 174.067 213.735 174.048 213.142H170.95ZM170.692 205.568C170.692 207.022 170.988 208.255 171.581 209.269C172.174 210.283 172.958 211.057 173.933 211.593C174.928 212.128 175.99 212.396 177.118 212.396C178.227 212.396 179.193 212.128 180.016 211.593C180.857 211.038 181.517 210.254 181.995 209.24C182.493 208.207 182.741 206.983 182.741 205.568C182.741 204.134 182.493 202.919 181.995 201.924C181.517 200.911 180.857 200.136 180.016 199.601C179.193 199.046 178.227 198.769 177.118 198.769C175.99 198.769 174.928 199.036 173.933 199.572C172.958 200.107 172.174 200.882 171.581 201.896C170.988 202.89 170.692 204.114 170.692 205.568ZM173.905 205.568C173.905 204.688 174.086 203.942 174.45 203.33C174.813 202.718 175.291 202.259 175.884 201.953C176.496 201.628 177.156 201.465 177.864 201.465C178.323 201.465 178.772 201.552 179.212 201.724C179.652 201.896 180.054 202.164 180.417 202.527C180.781 202.871 181.068 203.302 181.278 203.818C181.508 204.315 181.622 204.899 181.622 205.568C181.622 206.467 181.431 207.222 181.048 207.835C180.685 208.447 180.216 208.915 179.643 209.24C179.069 209.546 178.476 209.699 177.864 209.699C177.156 209.699 176.496 209.546 175.884 209.24C175.291 208.915 174.813 208.447 174.45 207.835C174.086 207.203 173.905 206.448 173.905 205.568ZM188.391 193.805C188.391 194.322 188.582 194.771 188.965 195.154C189.367 195.517 189.826 195.699 190.342 195.699C190.897 195.699 191.365 195.517 191.748 195.154C192.13 194.771 192.322 194.322 192.322 193.805C192.322 193.27 192.13 192.82 191.748 192.457C191.365 192.094 190.897 191.912 190.342 191.912C189.826 191.912 189.367 192.094 188.965 192.457C188.582 192.82 188.391 193.27 188.391 193.805ZM188.822 199.056V212.253H191.891V199.056H188.822ZM204.647 204.22V212.253H207.831V203.847C207.831 202.278 207.439 201.045 206.655 200.146C205.871 199.228 204.733 198.769 203.241 198.769C202.342 198.769 201.558 198.96 200.888 199.342C200.238 199.725 199.703 200.308 199.282 201.092V199.056H196.155V212.253H199.282V204.22C199.282 203.627 199.397 203.11 199.626 202.67C199.875 202.211 200.219 201.867 200.659 201.638C201.099 201.389 201.615 201.265 202.208 201.265C203.031 201.265 203.643 201.513 204.044 202.011C204.446 202.508 204.647 203.244 204.647 204.22ZM213.739 208.15C213.739 207.729 213.835 207.375 214.026 207.089C214.236 206.802 214.542 206.582 214.944 206.429C215.346 206.257 215.872 206.171 216.522 206.171C217.268 206.171 217.976 206.266 218.645 206.457C219.315 206.649 219.946 206.955 220.539 207.375V205.798C220.366 205.587 220.07 205.358 219.649 205.109C219.228 204.841 218.693 204.612 218.043 204.42C217.411 204.229 216.656 204.134 215.776 204.134C214.131 204.134 212.859 204.516 211.96 205.281C211.061 206.027 210.612 207.041 210.612 208.322C210.612 209.221 210.822 209.986 211.243 210.617C211.664 211.249 212.228 211.727 212.936 212.052C213.644 212.377 214.409 212.54 215.231 212.54C215.996 212.54 216.742 212.406 217.469 212.138C218.215 211.851 218.827 211.421 219.305 210.847C219.802 210.273 220.051 209.565 220.051 208.724L219.592 207.003C219.592 207.672 219.439 208.246 219.133 208.724C218.827 209.202 218.416 209.575 217.899 209.843C217.402 210.091 216.838 210.216 216.206 210.216C215.728 210.216 215.298 210.139 214.915 209.986C214.552 209.833 214.265 209.604 214.055 209.298C213.844 208.973 213.739 208.59 213.739 208.15ZM212.764 202.498C212.974 202.364 213.271 202.202 213.653 202.011C214.036 201.8 214.495 201.628 215.03 201.494C215.585 201.341 216.168 201.265 216.78 201.265C217.182 201.265 217.555 201.303 217.899 201.379C218.243 201.456 218.54 201.58 218.789 201.752C219.056 201.924 219.257 202.144 219.391 202.412C219.525 202.68 219.592 203.024 219.592 203.445V212.253H222.633V202.843C222.633 201.963 222.394 201.217 221.916 200.605C221.457 199.993 220.806 199.534 219.965 199.228C219.123 198.903 218.167 198.74 217.096 198.74C215.853 198.74 214.762 198.912 213.825 199.256C212.888 199.601 212.113 199.954 211.501 200.318L212.764 202.498ZM243.339 204.22V212.253H246.523V203.847C246.523 202.278 246.131 201.045 245.347 200.146C244.563 199.228 243.425 198.769 241.933 198.769C241.034 198.769 240.25 198.96 239.58 199.342C238.93 199.725 238.394 200.308 237.974 201.092V199.056H234.846V212.253H237.974V204.22C237.974 203.627 238.088 203.11 238.318 202.67C238.566 202.211 238.911 201.867 239.351 201.638C239.791 201.389 240.307 201.265 240.9 201.265C241.722 201.265 242.334 201.513 242.736 202.011C243.138 202.508 243.339 203.244 243.339 204.22ZM249.476 205.654C249.476 206.993 249.782 208.188 250.394 209.24C251.025 210.273 251.876 211.086 252.947 211.679C254.038 212.253 255.252 212.54 256.591 212.54C257.949 212.54 259.163 212.253 260.234 211.679C261.306 211.086 262.147 210.273 262.759 209.24C263.39 208.188 263.706 206.993 263.706 205.654C263.706 204.296 263.39 203.101 262.759 202.068C262.147 201.035 261.306 200.232 260.234 199.658C259.163 199.065 257.949 198.769 256.591 198.769C255.252 198.769 254.038 199.065 252.947 199.658C251.876 200.232 251.025 201.035 250.394 202.068C249.782 203.101 249.476 204.296 249.476 205.654ZM252.66 205.654C252.66 204.832 252.833 204.105 253.177 203.474C253.521 202.843 253.99 202.355 254.583 202.011C255.176 201.666 255.845 201.494 256.591 201.494C257.337 201.494 258.006 201.666 258.599 202.011C259.192 202.355 259.661 202.843 260.005 203.474C260.349 204.105 260.521 204.832 260.521 205.654C260.521 206.477 260.349 207.203 260.005 207.835C259.661 208.447 259.192 208.934 258.599 209.298C258.006 209.642 257.337 209.814 256.591 209.814C255.845 209.814 255.176 209.642 254.583 209.298C253.99 208.934 253.521 208.447 253.177 207.835C252.833 207.203 252.66 206.477 252.66 205.654ZM281.013 212.54C282.543 212.54 283.853 212.243 284.944 211.65C286.034 211.038 286.933 210.139 287.64 208.953L284.944 207.892C284.542 208.6 284.026 209.126 283.394 209.47C282.763 209.814 282.017 209.986 281.157 209.986C280.353 209.986 279.674 209.814 279.12 209.47C278.565 209.126 278.135 208.619 277.829 207.949C277.542 207.28 277.408 206.477 277.427 205.539C277.427 204.583 277.57 203.78 277.857 203.129C278.163 202.479 278.584 201.982 279.12 201.638C279.674 201.293 280.344 201.121 281.128 201.121C281.778 201.121 282.342 201.265 282.821 201.552C283.318 201.838 283.7 202.24 283.968 202.756C284.255 203.273 284.398 203.885 284.398 204.593C284.398 204.726 284.36 204.889 284.284 205.08C284.226 205.272 284.169 205.425 284.112 205.539L285.058 204.22H276.136V206.371H287.726C287.726 206.295 287.726 206.171 287.726 205.998C287.746 205.826 287.755 205.664 287.755 205.511C287.755 204.095 287.497 202.89 286.981 201.896C286.464 200.882 285.709 200.107 284.714 199.572C283.739 199.036 282.553 198.769 281.157 198.769C279.76 198.769 278.546 199.056 277.513 199.629C276.48 200.184 275.677 200.978 275.103 202.011C274.548 203.043 274.271 204.258 274.271 205.654C274.271 207.031 274.548 208.236 275.103 209.269C275.658 210.302 276.442 211.105 277.456 211.679C278.488 212.253 279.674 212.54 281.013 212.54ZM299.233 204.22V212.253H302.417V203.847C302.417 202.278 302.025 201.045 301.241 200.146C300.457 199.228 299.319 198.769 297.827 198.769C296.928 198.769 296.144 198.96 295.474 199.342C294.824 199.725 294.289 200.308 293.868 201.092V199.056H290.741V212.253H293.868V204.22C293.868 203.627 293.983 203.11 294.212 202.67C294.461 202.211 294.805 201.867 295.245 201.638C295.685 201.389 296.201 201.265 296.794 201.265C297.617 201.265 298.229 201.513 298.63 202.011C299.032 202.508 299.233 203.244 299.233 204.22ZM308.44 205.654C308.44 204.832 308.622 204.105 308.985 203.474C309.348 202.843 309.836 202.345 310.448 201.982C311.079 201.618 311.778 201.437 312.543 201.437C313.155 201.437 313.748 201.532 314.321 201.724C314.895 201.915 315.402 202.183 315.842 202.527C316.301 202.852 316.636 203.235 316.846 203.675V200.232C316.387 199.792 315.765 199.438 314.981 199.17C314.197 198.903 313.336 198.769 312.399 198.769C311.06 198.769 309.846 199.065 308.756 199.658C307.684 200.232 306.833 201.035 306.202 202.068C305.571 203.101 305.255 204.296 305.255 205.654C305.255 206.993 305.571 208.188 306.202 209.24C306.833 210.273 307.684 211.086 308.756 211.679C309.846 212.253 311.06 212.54 312.399 212.54C313.336 212.54 314.197 212.406 314.981 212.138C315.765 211.87 316.387 211.507 316.846 211.048V207.634C316.636 208.054 316.31 208.437 315.871 208.781C315.431 209.106 314.924 209.374 314.35 209.585C313.795 209.776 313.193 209.871 312.543 209.871C311.778 209.871 311.079 209.69 310.448 209.326C309.836 208.963 309.348 208.466 308.985 207.835C308.622 207.203 308.44 206.477 308.44 205.654ZM319.267 205.654C319.267 206.993 319.573 208.188 320.185 209.24C320.816 210.273 321.667 211.086 322.738 211.679C323.828 212.253 325.043 212.54 326.382 212.54C327.74 212.54 328.954 212.253 330.025 211.679C331.096 211.086 331.938 210.273 332.55 209.24C333.181 208.188 333.497 206.993 333.497 205.654C333.497 204.296 333.181 203.101 332.55 202.068C331.938 201.035 331.096 200.232 330.025 199.658C328.954 199.065 327.74 198.769 326.382 198.769C325.043 198.769 323.828 199.065 322.738 199.658C321.667 200.232 320.816 201.035 320.185 202.068C319.573 203.101 319.267 204.296 319.267 205.654ZM322.451 205.654C322.451 204.832 322.623 204.105 322.968 203.474C323.312 202.843 323.781 202.355 324.373 202.011C324.966 201.666 325.636 201.494 326.382 201.494C327.128 201.494 327.797 201.666 328.39 202.011C328.983 202.355 329.451 202.843 329.796 203.474C330.14 204.105 330.312 204.832 330.312 205.654C330.312 206.477 330.14 207.203 329.796 207.835C329.451 208.447 328.983 208.934 328.39 209.298C327.797 209.642 327.128 209.814 326.382 209.814C325.636 209.814 324.966 209.642 324.373 209.298C323.781 208.934 323.312 208.447 322.968 207.835C322.623 207.203 322.451 206.477 322.451 205.654ZM344.957 204.22V212.253H348.141V203.847C348.141 202.278 347.749 201.045 346.965 200.146C346.181 199.228 345.043 198.769 343.551 198.769C342.652 198.769 341.868 198.96 341.199 199.342C340.548 199.725 340.013 200.308 339.592 201.092V199.056H336.465V212.253H339.592V204.22C339.592 203.627 339.707 203.11 339.936 202.67C340.185 202.211 340.529 201.867 340.969 201.638C341.409 201.389 341.925 201.265 342.518 201.265C343.341 201.265 343.953 201.513 344.354 202.011C344.756 202.508 344.957 203.244 344.957 204.22ZM350.262 199.056V201.781H357.75V199.056H350.262ZM352.5 194.465V212.253H355.541V194.465H352.5ZM362.957 199.056H359.887V212.253H362.957V199.056ZM366.887 202.355L368.408 199.744C368.102 199.381 367.739 199.122 367.318 198.969C366.897 198.816 366.447 198.74 365.969 198.74C365.3 198.74 364.65 198.989 364.018 199.486C363.406 199.964 362.9 200.614 362.498 201.437C362.115 202.24 361.924 203.168 361.924 204.22L362.957 204.822C362.957 204.191 363.024 203.646 363.158 203.187C363.311 202.709 363.55 202.336 363.875 202.068C364.2 201.8 364.621 201.666 365.137 201.666C365.52 201.666 365.835 201.724 366.084 201.838C366.352 201.953 366.62 202.125 366.887 202.355ZM372.485 208.15C372.485 207.729 372.58 207.375 372.771 207.089C372.982 206.802 373.288 206.582 373.69 206.429C374.091 206.257 374.617 206.171 375.267 206.171C376.013 206.171 376.721 206.266 377.39 206.457C378.06 206.649 378.691 206.955 379.284 207.375V205.798C379.112 205.587 378.815 205.358 378.395 205.109C377.974 204.841 377.438 204.612 376.788 204.42C376.157 204.229 375.401 204.134 374.521 204.134C372.877 204.134 371.605 204.516 370.706 205.281C369.807 206.027 369.357 207.041 369.357 208.322C369.357 209.221 369.568 209.986 369.989 210.617C370.409 211.249 370.974 211.727 371.681 212.052C372.389 212.377 373.154 212.54 373.976 212.54C374.741 212.54 375.487 212.406 376.214 212.138C376.96 211.851 377.572 211.421 378.05 210.847C378.548 210.273 378.796 209.565 378.796 208.724L378.337 207.003C378.337 207.672 378.184 208.246 377.878 208.724C377.572 209.202 377.161 209.575 376.645 209.843C376.147 210.091 375.583 210.216 374.952 210.216C374.474 210.216 374.043 210.139 373.661 209.986C373.297 209.833 373.011 209.604 372.8 209.298C372.59 208.973 372.485 208.59 372.485 208.15ZM371.509 202.498C371.719 202.364 372.016 202.202 372.398 202.011C372.781 201.8 373.24 201.628 373.776 201.494C374.33 201.341 374.914 201.265 375.526 201.265C375.927 201.265 376.3 201.303 376.645 201.379C376.989 201.456 377.285 201.58 377.534 201.752C377.802 201.924 378.003 202.144 378.136 202.412C378.27 202.68 378.337 203.024 378.337 203.445V212.253H381.378V202.843C381.378 201.963 381.139 201.217 380.661 200.605C380.202 199.993 379.552 199.534 378.71 199.228C377.869 198.903 376.912 198.74 375.841 198.74C374.598 198.74 373.508 198.912 372.571 199.256C371.633 199.601 370.859 199.954 370.247 200.318L371.509 202.498ZM394.917 189.875V212.253H398.044V189.875H394.917ZM383.986 205.654C383.986 207.089 384.283 208.322 384.876 209.355C385.469 210.388 386.253 211.182 387.228 211.736C388.223 212.272 389.284 212.54 390.413 212.54C391.522 212.54 392.488 212.262 393.311 211.708C394.152 211.153 394.812 210.359 395.29 209.326C395.787 208.294 396.036 207.069 396.036 205.654C396.036 204.22 395.787 202.996 395.29 201.982C394.812 200.949 394.152 200.155 393.311 199.601C392.488 199.046 391.522 198.769 390.413 198.769C389.284 198.769 388.223 199.046 387.228 199.601C386.253 200.136 385.469 200.92 384.876 201.953C384.283 202.967 383.986 204.201 383.986 205.654ZM387.2 205.654C387.2 204.774 387.381 204.019 387.745 203.388C388.108 202.756 388.586 202.278 389.179 201.953C389.791 201.628 390.451 201.465 391.159 201.465C391.771 201.465 392.364 201.628 392.938 201.953C393.511 202.278 393.98 202.756 394.343 203.388C394.726 204 394.917 204.755 394.917 205.654C394.917 206.553 394.726 207.318 394.343 207.949C393.98 208.561 393.511 209.03 392.938 209.355C392.364 209.68 391.771 209.843 391.159 209.843C390.451 209.843 389.791 209.68 389.179 209.355C388.586 209.03 388.108 208.552 387.745 207.921C387.381 207.289 387.2 206.534 387.2 205.654ZM403.836 208.15C403.836 207.729 403.931 207.375 404.123 207.089C404.333 206.802 404.639 206.582 405.041 206.429C405.442 206.257 405.968 206.171 406.619 206.171C407.365 206.171 408.072 206.266 408.742 206.457C409.411 206.649 410.042 206.955 410.635 207.375V205.798C410.463 205.587 410.167 205.358 409.746 205.109C409.325 204.841 408.79 204.612 408.139 204.42C407.508 204.229 406.753 204.134 405.873 204.134C404.228 204.134 402.956 204.516 402.057 205.281C401.158 206.027 400.709 207.041 400.709 208.322C400.709 209.221 400.919 209.986 401.34 210.617C401.761 211.249 402.325 211.727 403.032 212.052C403.74 212.377 404.505 212.54 405.328 212.54C406.093 212.54 406.839 212.406 407.565 212.138C408.311 211.851 408.923 211.421 409.402 210.847C409.899 210.273 410.147 209.565 410.147 208.724L409.688 207.003C409.688 207.672 409.535 208.246 409.229 208.724C408.923 209.202 408.512 209.575 407.996 209.843C407.498 210.091 406.934 210.216 406.303 210.216C405.825 210.216 405.395 210.139 405.012 209.986C404.649 209.833 404.362 209.604 404.151 209.298C403.941 208.973 403.836 208.59 403.836 208.15ZM402.86 202.498C403.071 202.364 403.367 202.202 403.75 202.011C404.132 201.8 404.591 201.628 405.127 201.494C405.681 201.341 406.265 201.265 406.877 201.265C407.279 201.265 407.651 201.303 407.996 201.379C408.34 201.456 408.637 201.58 408.885 201.752C409.153 201.924 409.354 202.144 409.488 202.412C409.622 202.68 409.688 203.024 409.688 203.445V212.253H412.73V202.843C412.73 201.963 412.49 201.217 412.012 200.605C411.553 199.993 410.903 199.534 410.061 199.228C409.22 198.903 408.264 198.74 407.192 198.74C405.949 198.74 404.859 198.912 403.922 199.256C402.985 199.601 402.21 199.954 401.598 200.318L402.86 202.498Z" fill="#22203D"/>
<path d="M211.88 21.36H215.92V16.8H206.76V56.8H215.92V52.24H211.88V21.36ZM223.431 48H237.551V43.16H223.431V48ZM223.431 24.84H237.551V20H223.431V24.84ZM223.431 35.52H236.751V30.76H223.431V35.52ZM219.751 20V48H225.271V20H219.751ZM249.548 34.96L257.948 48H264.708L255.588 34.96H249.548ZM243.188 20V48H248.908V20H243.188ZM246.668 24.88H252.228C253.242 24.88 254.108 25.0534 254.828 25.4C255.575 25.72 256.148 26.2 256.548 26.84C256.948 27.4534 257.148 28.2 257.148 29.08C257.148 29.96 256.948 30.72 256.548 31.36C256.148 31.9734 255.575 32.4534 254.828 32.8C254.108 33.12 253.242 33.28 252.228 33.28H246.668V37.84H252.588C254.802 37.84 256.682 37.4667 258.228 36.72C259.775 35.9734 260.962 34.9334 261.788 33.6C262.615 32.24 263.028 30.68 263.028 28.92C263.028 27.1334 262.615 25.5734 261.788 24.24C260.962 22.9067 259.775 21.8667 258.228 21.12C256.682 20.3734 254.802 20 252.588 20H246.668V24.88ZM274.353 34.96L282.753 48H289.513L280.393 34.96H274.353ZM267.993 20V48H273.713V20H267.993ZM271.473 24.88H277.033C278.046 24.88 278.913 25.0534 279.633 25.4C280.38 25.72 280.953 26.2 281.353 26.84C281.753 27.4534 281.953 28.2 281.953 29.08C281.953 29.96 281.753 30.72 281.353 31.36C280.953 31.9734 280.38 32.4534 279.633 32.8C278.913 33.12 278.046 33.28 277.033 33.28H271.473V37.84H277.393C279.606 37.84 281.486 37.4667 283.033 36.72C284.58 35.9734 285.766 34.9334 286.593 33.6C287.42 32.24 287.833 30.68 287.833 28.92C287.833 27.1334 287.42 25.5734 286.593 24.24C285.766 22.9067 284.58 21.8667 283.033 21.12C281.486 20.3734 279.606 20 277.393 20H271.473V24.88ZM297.238 34C297.238 32.2134 297.611 30.6267 298.358 29.24C299.104 27.8534 300.131 26.76 301.438 25.96C302.744 25.16 304.264 24.76 305.998 24.76C307.758 24.76 309.291 25.16 310.598 25.96C311.904 26.76 312.918 27.8534 313.638 29.24C314.358 30.6267 314.718 32.2134 314.718 34C314.718 35.7867 314.344 37.3734 313.598 38.76C312.878 40.1467 311.864 41.24 310.558 42.04C309.251 42.84 307.731 43.24 305.998 43.24C304.264 43.24 302.744 42.84 301.438 42.04C300.131 41.24 299.104 40.1467 298.358 38.76C297.611 37.3734 297.238 35.7867 297.238 34ZM291.198 34C291.198 36.1067 291.558 38.0667 292.278 39.88C292.998 41.6667 294.024 43.2267 295.358 44.56C296.691 45.8934 298.251 46.9334 300.038 47.68C301.851 48.4 303.838 48.76 305.998 48.76C308.158 48.76 310.131 48.4 311.918 47.68C313.731 46.9334 315.291 45.8934 316.598 44.56C317.931 43.2267 318.958 41.6667 319.678 39.88C320.424 38.0667 320.798 36.1067 320.798 34C320.798 31.8667 320.424 29.92 319.678 28.16C318.958 26.3734 317.918 24.8267 316.558 23.52C315.224 22.2134 313.664 21.2134 311.878 20.52C310.091 19.8 308.131 19.44 305.998 19.44C303.891 19.44 301.931 19.8 300.118 20.52C298.331 21.2134 296.771 22.2134 295.438 23.52C294.104 24.8267 293.064 26.3734 292.318 28.16C291.571 29.92 291.198 31.8667 291.198 34ZM331.58 34.96L339.98 48H346.74L337.62 34.96H331.58ZM325.22 20V48H330.94V20H325.22ZM328.7 24.88H334.26C335.273 24.88 336.14 25.0534 336.86 25.4C337.606 25.72 338.18 26.2 338.58 26.84C338.98 27.4534 339.18 28.2 339.18 29.08C339.18 29.96 338.98 30.72 338.58 31.36C338.18 31.9734 337.606 32.4534 336.86 32.8C336.14 33.12 335.273 33.28 334.26 33.28H328.7V37.84H334.62C336.833 37.84 338.713 37.4667 340.26 36.72C341.806 35.9734 342.993 34.9334 343.82 33.6C344.646 32.24 345.06 30.68 345.06 28.92C345.06 27.1334 344.646 25.5734 343.82 24.24C342.993 22.9067 341.806 21.8667 340.26 21.12C338.713 20.3734 336.833 20 334.62 20H328.7V24.88ZM351.824 52.24H347.784V56.8H356.944V16.8H347.784V21.36H351.824V52.24Z" fill="#22203D"/>
<path d="M352.8 308.1C371.136 308.1 386 299.952 386 289.9C386 279.848 371.136 271.7 352.8 271.7C334.464 271.7 319.6 279.848 319.6 289.9C319.6 299.952 334.464 308.1 352.8 308.1Z" fill="#848286"/>
<path d="M331.5 297.1C331.5 293 323.7 289.6 314.1 289.6C311.7 289.6 307.6 292.2 305.5 292.6C299.3 293.7 296.7 294 296.7 297.1C296.7 301.2 304.5 304.6 314.1 304.6C323.8 304.6 331.5 301.2 331.5 297.1Z" fill="#848286"/>
<path d="M393.5 301.6C403.275 301.6 411.2 294.213 411.2 285.1C411.2 275.987 403.275 268.6 393.5 268.6C383.724 268.6 375.8 275.987 375.8 285.1C375.8 294.213 383.724 301.6 393.5 301.6Z" fill="#848286"/>
<path d="M397.9 271.7C397.9 285.7 384.9 297 368.8 297C352.7 297 339.7 285.7 339.7 271.7C339.7 264.8 345.2 261.2 350.3 256.6C355.6 251.9 360.6 246.4 368.8 246.4C384.9 246.4 397.9 257.7 397.9 271.7Z" fill="#848286"/>
<path d="M418 301.6C431.697 301.6 442.8 296.496 442.8 290.2C442.8 283.904 431.697 278.8 418 278.8C404.303 278.8 393.2 283.904 393.2 290.2C393.2 296.496 404.303 301.6 418 301.6Z" fill="#848286"/>
<path d="M369 246.4C384.1 246.4 396.6 256.4 398 269.2C398.1 270 388.7 271.3 388.8 268.7C390.1 250.2 369 246.4 369 246.4Z" fill="white"/>
<path d="M393.5 268.7C401.1 268.7 407.6 273.2 410.1 279.4C410.1 279.4 404.5 281.3 404.7 277.9C404.9 273.6 393.5 268.7 393.5 268.7Z" fill="white"/>
<path d="M373.9 275.4C378.9 275.4 383.2 279 384.9 284C384.9 284 381.2 285.5 381.3 282.8C381.5 279.4 373.9 275.4 373.9 275.4Z" fill="white"/>
<path d="M421 326.4C463.195 326.4 497.4 318.878 497.4 309.6C497.4 300.322 463.195 292.8 421 292.8C378.806 292.8 344.6 300.322 344.6 309.6C344.6 318.878 378.806 326.4 421 326.4Z" fill="#848286"/>
<path d="M493.1 110.5C505.9 113.5 535.1 129.6 538.6 149.6C538.6 149.6 536.2 143.7 534 143.9C534 143.9 540.3 155.1 542.9 167.2C542.9 167.2 541.6 163.9 538.9 164C538.9 164 541.7 182.6 540.5 190.6C540.5 190.6 537.7 185.5 536.3 186.2C536.3 186.2 535.3 204.8 532.9 207.5C532.9 207.5 532.4 202.3 528.7 202.5C528.7 202.5 529.2 209.5 527.4 210.8C527.4 210.8 526.1 208.4 524.2 208.3C520.9 208.8 518 210.9 518 210.9C518 210.9 533.9 218.1 539.9 234.9C545.9 251.7 542.3 255.2 542.3 255.2C542.3 255.2 540 250.5 538.7 251C538.7 251 541.1 263.1 533.9 273.7C533.9 273.7 532.5 268.9 530.3 270.1C530.3 270.1 531.3 276 524.2 283.7C524.2 283.7 525 281.8 522 280.6C522 280.6 520.4 286.7 517.8 289.4C517.8 289.4 512.8 286.2 511.8 287.1C511.8 287.1 514.7 294.3 514.8 297.3C514.9 302.4 506.1 304.9 504.3 304.4C502.3 303.8 498.3 300.8 501.6 297.7C502.9 296.5 504 296.6 503.9 295.5C503.6 293.5 502.2 293.5 502.2 293.5L497.4 292.9L485.7 318.5C466.6 323.9 430.4 330.6 392.5 325.2L432.2 252.3C426.8 239.4 453.1 189.3 492 202.6C520.4 181.5 507.4 128.3 493.1 110.5Z" fill="#FFCC10"/>
<path d="M542.3 255.3C542.3 255.3 540 250.6 538.7 251.1C538.7 251.1 541.1 263.2 533.9 273.8C533.9 273.8 532.5 269 530.3 270.2C530.3 270.2 531.3 276.1 524.2 283.8C524.2 283.8 525 281.9 522 280.7C522 280.7 520.4 286.8 517.8 289.5C517.8 289.5 512.7 286.2 511.8 287.2C549.2 248.3 517.8 210.9 518 211C528.6 216.3 536.7 225.5 539.9 234.9C542.7 243 544.7 252.3 542.3 255.3Z" fill="#F9BD7C"/>
<path d="M485.8 318.5L497.5 292.9C497.5 292.9 487.5 292.3 482.3 286.5L463.2 323.5C463.1 323.6 477.1 321.7 485.8 318.5Z" fill="#F9BD7C"/>
<path d="M493.1 110.5C505.9 113.5 535.1 129.6 538.6 149.7C538.6 149.7 536.2 143.8 534 144C534 144 540.3 155.2 542.9 167.3C542.9 167.3 541.6 164 538.9 164.1C538.9 164.1 541.7 182.7 540.5 190.7C540.5 190.7 537.7 185.6 536.3 186.3C536.3 186.3 535.3 204.9 532.9 207.6C532.9 207.6 532.4 202.4 528.7 202.6C528.7 202.6 529.2 209.6 527.4 210.9C527.4 210.9 526.1 208.5 524.2 208.4C520.9 208.8 518 210.9 518 210.9C551.4 131.8 499.9 113.2 493.1 110.5Z" fill="#F9BD7C"/>
<path d="M493.6 197.7C493.6 197.7 508.8 164.4 495.2 124.5C495.2 124.5 513.8 166 493.6 197.7Z" fill="#E5E4E7"/>
<path d="M527.7 217.2C527.7 217.2 552.4 190.2 551.5 148C551.6 148 556.6 193.2 527.7 217.2Z" fill="#E5E4E7"/>
<path d="M490.2 197.6C490.2 197.6 502.1 173.2 490.5 152.5C490.5 152.5 498.4 170.8 490.2 197.6Z" fill="#E5E4E7"/>
</g>
<defs>
<clipPath id="clip0_206_588">
<rect width="565" height="336" fill="white"/>
</clipPath>
</defs>
</svg>
