<svg width="525" height="448" viewBox="0 0 525 448" fill="none" xmlns="http://www.w3.org/2000/svg">
<g clip-path="url(#clip0_207_909)">
<path d="M58.3743 136.293C58.3743 62.9392 102.824 3.53185 256.921 3.53185C411.018 3.53185 466.626 62.8486 466.626 136.293C466.626 209.737 410.926 269.325 256.828 269.325C102.731 269.325 58.3743 209.646 58.3743 136.293Z" fill="#E5E4E7"/>
<path d="M294.546 422.19C294.546 422.19 307.825 429.797 314.281 431.156C320.828 432.514 330.511 420.741 329.589 417.481C328.667 414.221 354.396 415.489 354.396 415.489L385.658 415.217C385.658 415.217 411.94 415.127 419.687 418.659C423.099 420.198 430.476 428.982 430.476 428.982C430.476 428.982 434.165 433.692 436.009 434.416C442.003 436.589 458.326 432.967 460.078 426.084C461.83 419.202 457.127 407.248 450.764 402.358C443.663 396.834 402.718 355.267 401.796 356.263C400.782 357.259 341.946 363.145 341.946 363.145L308.102 400.728C308.102 400.728 305.336 399.732 302.569 401.181C299.802 402.629 292.333 414.221 293.347 416.395C294.362 418.568 293.071 418.296 294.546 422.19Z" fill="#F9BD7C"/>
<path d="M399.675 324.023L383.076 318.59L355.41 321.397C355.41 321.397 336.044 352.097 335.491 361.606C334.938 372.02 350.707 401.181 350.707 401.181L349.232 415.761C349.232 415.761 345.266 418.296 344.344 420.832C343.514 423.368 346.926 430.703 352.644 433.51C358.361 436.318 372.655 430.975 373.762 428.711C374.868 426.447 371.733 419.202 371.733 419.202L377.727 405.165L385.473 409.421L390.084 403.535L395.525 417.844C395.525 417.844 392.667 420.651 393.22 423.187C393.773 425.722 399.214 434.144 403.825 436.137C408.436 438.129 419.871 435.593 422.084 431.88C424.39 428.258 422.084 419.564 418.949 417.844C415.813 416.123 411.756 398.192 414.246 388.412C415.168 384.97 420.516 366.043 420.332 362.511C419.779 352.731 399.675 324.023 399.675 324.023Z" fill="#FFCC10"/>
<path d="M308.102 400.818C308.102 400.818 305.336 399.822 302.569 401.271C299.802 402.72 292.333 414.312 293.347 416.485C294.362 418.659 293.071 418.206 294.638 422.1C294.638 422.1 307.918 429.707 314.373 431.065C320.92 432.424 330.603 420.651 329.681 417.391C329.681 417.391 328.021 410.689 326.638 406.614C325.163 402.629 321.843 402.992 308.102 400.818Z" fill="#FFCC10"/>
<path d="M430.476 429.073C430.476 429.073 434.165 433.782 436.009 434.507C442.003 436.68 458.326 433.058 460.078 426.175C461.83 419.292 459.433 409.15 450.211 406.524C450.211 406.524 437.669 404.803 434.995 405.98C432.32 407.157 429.923 416.123 429.923 416.123C429.923 416.123 431.398 420.47 431.398 421.466C431.398 422.462 428.816 425.903 430.476 429.073Z" fill="#FFCC10"/>
<path d="M377.911 405.075L385.658 409.331L390.269 403.445C390.269 403.445 393.773 398.011 397.923 396.2C402.073 394.389 401.15 379.718 401.15 379.718C401.15 379.718 398.015 366.043 390.73 361.606C383.445 357.168 380.217 356.353 380.217 356.353C380.217 356.353 371.087 361.334 370.165 364.232C369.243 367.13 366.476 373.379 366.476 373.379C366.476 373.379 363.064 379.084 364.724 383.702C366.476 388.321 365.37 394.751 368.228 396.834C368.505 397.015 368.874 392.849 368.874 392.849C368.874 392.849 369.427 399.369 372.009 400.909C372.286 401.09 371.825 398.645 372.194 399.641C372.286 400.003 377.911 405.075 377.911 405.075Z" fill="#E5E4E7"/>
<path d="M457.127 422.19C459.064 425.451 457.311 429.979 453.162 432.424C449.012 434.869 444.032 434.235 442.095 430.975C441.081 429.254 442.003 427.986 442.925 425.994C443.663 424.364 444.216 421.828 446.061 420.741C447.905 419.655 450.026 420.651 451.778 420.741C454.084 420.832 456.02 420.379 457.127 422.19Z" fill="#E5E4E7"/>
<path d="M446.581 418.924C447.724 418.174 447.709 416.183 446.548 414.479C445.388 412.774 443.52 412.001 442.377 412.752C441.234 413.503 441.248 415.493 442.409 417.197C443.57 418.902 445.438 419.675 446.581 418.924Z" fill="#E5E4E7"/>
<path d="M451.642 419.17C452.998 418.945 453.877 417.483 453.605 415.905C453.333 414.327 452.013 413.23 450.657 413.456C449.302 413.681 448.423 415.143 448.695 416.721C448.967 418.299 450.287 419.396 451.642 419.17Z" fill="#E5E4E7"/>
<path d="M442.807 421.558C443.669 420.506 443.047 418.611 441.42 417.326C439.792 416.041 437.774 415.853 436.912 416.906C436.051 417.958 436.672 419.853 438.3 421.138C439.928 422.423 441.945 422.611 442.807 421.558Z" fill="#E5E4E7"/>
<path d="M440.583 426.975C441.163 425.751 440.436 424.211 438.959 423.536C437.481 422.86 435.813 423.305 435.233 424.529C434.652 425.753 435.379 427.293 436.857 427.969C438.334 428.644 440.002 428.199 440.583 426.975Z" fill="#E5E4E7"/>
<path d="M314.188 426.809C313.358 427.986 312.16 428.801 310.776 429.345C308.102 430.341 297.589 424.817 297.128 422.643C296.667 420.832 296.944 419.021 298.05 417.572C299.341 415.67 301.093 415.942 303.583 415.761C305.704 415.58 308.471 414.855 310.5 416.032C312.436 417.119 312.436 419.564 313.266 421.285C314.188 423.368 315.479 424.907 314.188 426.809Z" fill="#E5E4E7"/>
<path d="M318.061 417.029C316.217 418.387 313.912 418.659 312.897 417.662C311.883 416.576 312.528 414.583 314.373 413.134C316.217 411.685 318.523 411.504 319.537 412.501C320.551 413.587 319.906 415.58 318.061 417.029Z" fill="#E5E4E7"/>
<path d="M319.168 423.82C317.416 424.454 315.572 423.82 315.018 422.462C314.465 421.104 315.572 419.564 317.324 418.93C319.076 418.296 320.92 418.93 321.474 420.289C322.027 421.647 321.013 423.187 319.168 423.82Z" fill="#E5E4E7"/>
<path d="M312.344 411.504C311.883 413.678 310.315 415.217 308.747 415.036C307.18 414.855 306.35 412.953 306.811 410.78C307.272 408.606 308.84 407.067 310.407 407.248C311.975 407.429 312.805 409.331 312.344 411.504Z" fill="#E5E4E7"/>
<path d="M305.059 411.142C305.428 412.863 304.413 414.493 302.938 414.946C301.462 415.398 299.894 414.312 299.618 412.591C299.341 410.87 300.263 409.24 301.739 408.788C303.307 408.425 304.782 409.421 305.059 411.142Z" fill="#E5E4E7"/>
<path d="M319.998 318.318C318.799 318.68 317.047 314.424 326.638 300.659C335.491 287.89 326.638 277.747 326.638 277.747C326.638 277.747 318.154 266.699 319.26 266.065C319.537 265.884 322.211 266.79 322.211 266.79C322.211 266.79 303.03 243.153 314.096 227.487C325.162 211.82 343.698 238.807 343.698 238.807C343.698 238.807 356.701 257.371 366.292 255.922C375.883 254.473 376.62 252.662 376.62 252.662C376.62 252.662 378.004 254.745 376.805 255.56C375.145 256.737 382.891 253.93 384.736 251.938C384.736 251.938 385.104 253.568 383.629 255.107C383.26 255.47 400.044 249.764 414.338 235.546C416.828 233.101 414.338 241.704 414.338 241.704C414.338 241.704 425.865 224.498 439.882 226.038C449.657 227.124 432.874 272.767 429.923 276.57C427.617 279.377 431.029 275.755 431.306 275.846C434.349 277.023 424.389 290.788 418.764 295.135C413.231 299.482 435.548 317.141 426.142 328.642C424.389 330.725 424.574 323.571 420.977 322.484C420.977 322.484 420.885 339.056 418.026 335.615C410.649 326.559 396.632 326.378 388.055 325.744C370.073 324.295 359.283 329.276 353.381 331.178C334.569 337.155 338.073 337.789 335.491 337.789C329.589 337.607 332.632 326.106 332.632 326.106C328.206 326.921 326.546 332.083 324.978 332.446C323.595 332.717 317.232 322.575 325.992 313.519C325.992 313.428 321.197 317.956 319.998 318.318Z" fill="#FFCC10"/>
<path d="M322.119 266.79C322.119 266.79 302.938 243.153 314.004 227.487C317.324 222.777 319.998 222.053 323.41 224.226C330.142 228.392 337.059 239.803 338.811 251.485C341.209 267.786 335.307 266.427 332.909 264.978C330.511 263.529 335.03 272.042 332.079 272.223C329.128 272.495 322.119 266.79 322.119 266.79Z" fill="#F9BD7C"/>
<path d="M430.015 276.298C433.427 272.948 449.75 226.943 439.975 225.766C436.194 225.313 432.597 226.309 429.369 227.849C429.369 227.849 406.13 252.753 408.712 265.793C411.295 278.925 421.07 270.412 421.07 270.412C421.07 270.412 417.012 277.566 419.133 280.192C421.254 283.09 427.894 278.381 430.015 276.298Z" fill="#F9BD7C"/>
<path d="M378.772 333.623C379.949 337.245 380.377 345.848 383.264 349.199C386.152 352.55 394.386 354.452 396.525 348.384C398.771 342.317 396.418 332.898 394.065 329.367C392.354 326.831 389.574 324.114 387.863 322.756C386.045 321.397 367.864 321.397 367.864 321.397C367.864 321.397 376.634 327.374 378.772 333.623Z" fill="#A67C9B"/>
<path d="M100.82 216.509H110.947V213.038H100.82V216.509ZM100.82 199.898H110.947V196.427H100.82V199.898ZM100.82 207.558H110.373V204.144H100.82V207.558ZM98.1804 196.427V216.509H102.14V196.427H98.1804ZM118.29 203.312H114.646V216.509H118.29V203.312ZM122.163 207.185L123.856 204.029C123.588 203.685 123.234 203.427 122.794 203.255C122.374 203.083 121.924 202.996 121.446 202.996C120.757 202.996 120.088 203.245 119.438 203.742C118.787 204.221 118.261 204.871 117.86 205.693C117.458 206.497 117.257 207.424 117.257 208.476L118.29 209.509C118.29 208.878 118.367 208.342 118.52 207.902C118.692 207.443 118.94 207.09 119.265 206.841C119.591 206.592 119.983 206.468 120.442 206.468C120.824 206.468 121.14 206.535 121.389 206.669C121.656 206.784 121.914 206.956 122.163 207.185ZM129.469 203.312H125.825V216.509H129.469V203.312ZM133.342 207.185L135.035 204.029C134.767 203.685 134.413 203.427 133.973 203.255C133.552 203.083 133.103 202.996 132.625 202.996C131.936 202.996 131.267 203.245 130.616 203.742C129.966 204.221 129.44 204.871 129.039 205.693C128.637 206.497 128.436 207.424 128.436 208.476L129.469 209.509C129.469 208.878 129.545 208.342 129.698 207.902C129.871 207.443 130.119 207.09 130.444 206.841C130.769 206.592 131.162 206.468 131.621 206.468C132.003 206.468 132.319 206.535 132.567 206.669C132.835 206.784 133.093 206.956 133.342 207.185ZM135.695 209.911C135.695 211.269 136.01 212.474 136.641 213.526C137.292 214.558 138.162 215.362 139.252 215.935C140.361 216.509 141.614 216.796 143.01 216.796C144.407 216.796 145.65 216.509 146.74 215.935C147.849 215.362 148.72 214.558 149.351 213.526C150.001 212.474 150.326 211.269 150.326 209.911C150.326 208.534 150.001 207.329 149.351 206.296C148.72 205.263 147.849 204.46 146.74 203.886C145.65 203.312 144.407 203.025 143.01 203.025C141.614 203.025 140.361 203.312 139.252 203.886C138.162 204.46 137.292 205.263 136.641 206.296C136.01 207.329 135.695 208.534 135.695 209.911ZM139.482 209.911C139.482 209.165 139.635 208.505 139.941 207.931C140.266 207.357 140.696 206.917 141.232 206.611C141.767 206.305 142.36 206.152 143.01 206.152C143.661 206.152 144.254 206.305 144.789 206.611C145.325 206.917 145.745 207.357 146.051 207.931C146.377 208.505 146.539 209.165 146.539 209.911C146.539 210.657 146.377 211.316 146.051 211.89C145.745 212.445 145.325 212.885 144.789 213.21C144.254 213.516 143.661 213.669 143.01 213.669C142.36 213.669 141.767 213.516 141.232 213.21C140.696 212.885 140.266 212.445 139.941 211.89C139.635 211.316 139.482 210.657 139.482 209.911ZM156.758 203.312H153.114V216.509H156.758V203.312ZM160.631 207.185L162.323 204.029C162.056 203.685 161.702 203.427 161.262 203.255C160.841 203.083 160.392 202.996 159.913 202.996C159.225 202.996 158.556 203.245 157.905 203.742C157.255 204.221 156.729 204.871 156.327 205.693C155.926 206.497 155.725 207.424 155.725 208.476L156.758 209.509C156.758 208.878 156.834 208.342 156.987 207.902C157.159 207.443 157.408 207.09 157.733 206.841C158.058 206.592 158.45 206.468 158.909 206.468C159.292 206.468 159.607 206.535 159.856 206.669C160.124 206.784 160.382 206.956 160.631 207.185ZM172.722 198.205C172.722 198.798 172.942 199.296 173.382 199.697C173.822 200.099 174.348 200.3 174.96 200.3C175.572 200.3 176.088 200.099 176.509 199.697C176.949 199.296 177.169 198.798 177.169 198.205C177.169 197.593 176.949 197.096 176.509 196.713C176.088 196.312 175.572 196.111 174.96 196.111C174.348 196.111 173.822 196.312 173.382 196.713C172.942 197.096 172.722 197.593 172.722 198.205ZM173.124 203.312V216.509H176.739V203.312H173.124ZM189.204 208.476V216.509H193.048V208.075C193.048 206.487 192.666 205.253 191.901 204.374C191.136 203.475 189.969 203.025 188.4 203.025C187.463 203.025 186.66 203.226 185.991 203.628C185.34 204.01 184.814 204.574 184.413 205.32V203.312H180.683V216.509H184.413V208.476C184.413 207.922 184.518 207.443 184.728 207.042C184.939 206.64 185.245 206.334 185.646 206.124C186.048 205.894 186.507 205.779 187.023 205.779C187.788 205.779 188.343 206.009 188.687 206.468C189.032 206.927 189.204 207.596 189.204 208.476ZM195.016 203.312V206.439H203.164V203.312H195.016ZM197.283 198.722V216.509H200.869V198.722H197.283ZM211.368 216.796C212.955 216.796 214.313 216.49 215.442 215.878C216.589 215.247 217.507 214.31 218.196 213.067L214.954 212.062C214.571 212.694 214.084 213.172 213.491 213.497C212.917 213.803 212.219 213.956 211.396 213.956C210.669 213.956 210.048 213.793 209.531 213.468C209.015 213.143 208.623 212.674 208.355 212.062C208.107 211.45 207.982 210.704 207.982 209.825C208.001 208.907 208.135 208.141 208.384 207.529C208.652 206.898 209.025 206.43 209.503 206.124C210 205.798 210.612 205.636 211.339 205.636C211.932 205.636 212.448 205.77 212.888 206.038C213.328 206.305 213.663 206.669 213.892 207.128C214.141 207.587 214.265 208.141 214.265 208.792C214.265 208.926 214.227 209.098 214.15 209.308C214.093 209.499 214.026 209.652 213.95 209.767L214.954 208.447H206.376V210.743H218.196C218.215 210.628 218.224 210.475 218.224 210.284C218.244 210.092 218.253 209.911 218.253 209.739C218.253 208.323 217.985 207.118 217.45 206.124C216.914 205.11 216.13 204.345 215.097 203.828C214.084 203.293 212.85 203.025 211.396 203.025C209.943 203.025 208.68 203.312 207.609 203.886C206.538 204.441 205.706 205.234 205.113 206.267C204.539 207.281 204.253 208.495 204.253 209.911C204.253 211.307 204.539 212.521 205.113 213.554C205.706 214.568 206.538 215.362 207.609 215.935C208.68 216.509 209.933 216.796 211.368 216.796ZM224.699 203.312H221.056V216.509H224.699V203.312ZM228.572 207.185L230.265 204.029C229.997 203.685 229.643 203.427 229.204 203.255C228.783 203.083 228.333 202.996 227.855 202.996C227.167 202.996 226.497 203.245 225.847 203.742C225.197 204.221 224.671 204.871 224.269 205.693C223.867 206.497 223.666 207.424 223.666 208.476L224.699 209.509C224.699 208.878 224.776 208.342 224.929 207.902C225.101 207.443 225.35 207.09 225.675 206.841C226 206.592 226.392 206.468 226.851 206.468C227.234 206.468 227.549 206.535 227.798 206.669C228.066 206.784 228.324 206.956 228.572 207.185ZM240.755 208.476V216.509H244.6V208.075C244.6 206.487 244.217 205.253 243.452 204.374C242.687 203.475 241.52 203.025 239.952 203.025C239.015 203.025 238.212 203.226 237.542 203.628C236.892 204.01 236.366 204.574 235.964 205.32V203.312H232.235V216.509H235.964V208.476C235.964 207.922 236.069 207.443 236.28 207.042C236.49 206.64 236.796 206.334 237.198 206.124C237.6 205.894 238.059 205.779 238.575 205.779C239.34 205.779 239.895 206.009 240.239 206.468C240.583 206.927 240.755 207.596 240.755 208.476ZM247.371 209.911C247.371 211.269 247.687 212.474 248.318 213.526C248.968 214.558 249.838 215.362 250.929 215.935C252.038 216.509 253.291 216.796 254.687 216.796C256.083 216.796 257.326 216.509 258.417 215.935C259.526 215.362 260.396 214.558 261.027 213.526C261.678 212.474 262.003 211.269 262.003 209.911C262.003 208.534 261.678 207.329 261.027 206.296C260.396 205.263 259.526 204.46 258.417 203.886C257.326 203.312 256.083 203.025 254.687 203.025C253.291 203.025 252.038 203.312 250.929 203.886C249.838 204.46 248.968 205.263 248.318 206.296C247.687 207.329 247.371 208.534 247.371 209.911ZM251.158 209.911C251.158 209.165 251.311 208.505 251.617 207.931C251.942 207.357 252.373 206.917 252.908 206.611C253.444 206.305 254.037 206.152 254.687 206.152C255.337 206.152 255.93 206.305 256.466 206.611C257.001 206.917 257.422 207.357 257.728 207.931C258.053 208.505 258.216 209.165 258.216 209.911C258.216 210.657 258.053 211.316 257.728 211.89C257.422 212.445 257.001 212.885 256.466 213.21C255.93 213.516 255.337 213.669 254.687 213.669C254.037 213.669 253.444 213.516 252.908 213.21C252.373 212.885 251.942 212.445 251.617 211.89C251.311 211.316 251.158 210.657 251.158 209.911ZM283.347 194.131V216.509H287.077V194.131H283.347ZM272.502 209.911C272.502 211.364 272.799 212.607 273.392 213.64C273.985 214.673 274.769 215.457 275.744 215.993C276.72 216.528 277.753 216.796 278.843 216.796C279.952 216.796 280.928 216.519 281.769 215.964C282.63 215.41 283.299 214.616 283.777 213.583C284.275 212.55 284.523 211.326 284.523 209.911C284.523 208.476 284.275 207.252 283.777 206.238C283.299 205.206 282.63 204.412 281.769 203.857C280.928 203.302 279.952 203.025 278.843 203.025C277.753 203.025 276.72 203.293 275.744 203.828C274.769 204.364 273.985 205.148 273.392 206.181C272.799 207.195 272.502 208.438 272.502 209.911ZM276.347 209.911C276.347 209.126 276.509 208.447 276.835 207.874C277.16 207.3 277.6 206.86 278.154 206.554C278.709 206.248 279.302 206.095 279.933 206.095C280.488 206.095 281.023 206.248 281.54 206.554C282.075 206.841 282.506 207.271 282.831 207.845C283.175 208.419 283.347 209.107 283.347 209.911C283.347 210.714 283.175 211.403 282.831 211.976C282.506 212.55 282.075 212.99 281.54 213.296C281.023 213.583 280.488 213.726 279.933 213.726C279.302 213.726 278.709 213.573 278.154 213.267C277.6 212.961 277.16 212.521 276.835 211.948C276.509 211.374 276.347 210.695 276.347 209.911ZM296.876 216.796C298.464 216.796 299.822 216.49 300.95 215.878C302.098 215.247 303.016 214.31 303.704 213.067L300.462 212.062C300.08 212.694 299.592 213.172 298.999 213.497C298.425 213.803 297.727 213.956 296.905 213.956C296.178 213.956 295.556 213.793 295.04 213.468C294.524 213.143 294.131 212.674 293.864 212.062C293.615 211.45 293.491 210.704 293.491 209.825C293.51 208.907 293.644 208.141 293.892 207.529C294.16 206.898 294.533 206.43 295.011 206.124C295.509 205.798 296.121 205.636 296.847 205.636C297.44 205.636 297.957 205.77 298.397 206.038C298.837 206.305 299.171 206.669 299.401 207.128C299.649 207.587 299.774 208.141 299.774 208.792C299.774 208.926 299.735 209.098 299.659 209.308C299.602 209.499 299.535 209.652 299.458 209.767L300.462 208.447H291.884V210.743H303.704C303.723 210.628 303.733 210.475 303.733 210.284C303.752 210.092 303.762 209.911 303.762 209.739C303.762 208.323 303.494 207.118 302.958 206.124C302.423 205.11 301.639 204.345 300.606 203.828C299.592 203.293 298.358 203.025 296.905 203.025C295.451 203.025 294.189 203.312 293.118 203.886C292.047 204.441 291.215 205.234 290.622 206.267C290.048 207.281 289.761 208.495 289.761 209.911C289.761 211.307 290.048 212.521 290.622 213.554C291.215 214.568 292.047 215.362 293.118 215.935C294.189 216.509 295.442 216.796 296.876 216.796ZM306.564 194.131V216.509H310.294V194.131H306.564ZM323.222 211.948L321.414 214.271C321.912 214.75 322.466 215.199 323.078 215.62C323.71 216.022 324.408 216.347 325.173 216.595C325.957 216.844 326.818 216.968 327.755 216.968C329.266 216.968 330.452 216.605 331.312 215.878C332.173 215.132 332.603 214.099 332.603 212.78C332.603 211.976 332.422 211.326 332.058 210.829C331.695 210.331 331.207 209.92 330.595 209.595C330.002 209.251 329.352 208.945 328.644 208.677C328.07 208.428 327.554 208.218 327.095 208.046C326.655 207.874 326.311 207.682 326.062 207.472C325.833 207.243 325.718 206.984 325.718 206.697C325.718 206.372 325.833 206.133 326.062 205.98C326.311 205.808 326.645 205.722 327.066 205.722C327.697 205.722 328.338 205.885 328.988 206.21C329.658 206.535 330.232 206.956 330.71 207.472L332.345 205.177C331.924 204.756 331.437 204.393 330.882 204.087C330.327 203.762 329.725 203.503 329.075 203.312C328.424 203.121 327.726 203.025 326.98 203.025C326.1 203.025 325.297 203.169 324.57 203.456C323.863 203.723 323.298 204.134 322.878 204.689C322.457 205.225 322.246 205.885 322.246 206.669C322.246 207.491 322.428 208.17 322.792 208.706C323.174 209.222 323.652 209.643 324.226 209.968C324.8 210.274 325.393 210.542 326.005 210.771C326.655 210.982 327.191 211.183 327.611 211.374C328.032 211.565 328.348 211.785 328.558 212.034C328.788 212.263 328.902 212.55 328.902 212.894C328.902 213.277 328.769 213.583 328.501 213.812C328.233 214.023 327.85 214.128 327.353 214.128C326.971 214.128 326.559 214.052 326.12 213.899C325.699 213.746 325.249 213.516 324.771 213.21C324.293 212.885 323.777 212.464 323.222 211.948ZM341.395 216.796C342.983 216.796 344.341 216.49 345.469 215.878C346.617 215.247 347.535 214.31 348.223 213.067L344.982 212.062C344.599 212.694 344.111 213.172 343.518 213.497C342.945 213.803 342.246 213.956 341.424 213.956C340.697 213.956 340.076 213.793 339.559 213.468C339.043 213.143 338.651 212.674 338.383 212.062C338.134 211.45 338.01 210.704 338.01 209.825C338.029 208.907 338.163 208.141 338.412 207.529C338.679 206.898 339.052 206.43 339.531 206.124C340.028 205.798 340.64 205.636 341.367 205.636C341.96 205.636 342.476 205.77 342.916 206.038C343.356 206.305 343.691 206.669 343.92 207.128C344.169 207.587 344.293 208.141 344.293 208.792C344.293 208.926 344.255 209.098 344.178 209.308C344.121 209.499 344.054 209.652 343.977 209.767L344.982 208.447H336.403V210.743H348.223C348.243 210.628 348.252 210.475 348.252 210.284C348.271 210.092 348.281 209.911 348.281 209.739C348.281 208.323 348.013 207.118 347.478 206.124C346.942 205.11 346.158 204.345 345.125 203.828C344.111 203.293 342.878 203.025 341.424 203.025C339.97 203.025 338.708 203.312 337.637 203.886C336.566 204.441 335.734 205.234 335.141 206.267C334.567 207.281 334.28 208.495 334.28 209.911C334.28 211.307 334.567 212.521 335.141 213.554C335.734 214.568 336.566 215.362 337.637 215.935C338.708 216.509 339.961 216.796 341.395 216.796ZM354.727 203.312H351.083V216.509H354.727V203.312ZM358.6 207.185L360.293 204.029C360.025 203.685 359.671 203.427 359.231 203.255C358.811 203.083 358.361 202.996 357.883 202.996C357.194 202.996 356.525 203.245 355.875 203.742C355.224 204.221 354.698 204.871 354.297 205.693C353.895 206.497 353.694 207.424 353.694 208.476L354.727 209.509C354.727 208.878 354.804 208.342 354.957 207.902C355.129 207.443 355.377 207.09 355.703 206.841C356.028 206.592 356.42 206.468 356.879 206.468C357.261 206.468 357.577 206.535 357.826 206.669C358.093 206.784 358.352 206.956 358.6 207.185ZM361.237 203.312L368.467 217.886L375.697 203.312H371.709L368.467 211.259L365.225 203.312H361.237ZM377.304 198.205C377.304 198.798 377.524 199.296 377.963 199.697C378.403 200.099 378.929 200.3 379.541 200.3C380.153 200.3 380.67 200.099 381.091 199.697C381.53 199.296 381.75 198.798 381.75 198.205C381.75 197.593 381.53 197.096 381.091 196.713C380.67 196.312 380.153 196.111 379.541 196.111C378.929 196.111 378.403 196.312 377.963 196.713C377.524 197.096 377.304 197.593 377.304 198.205ZM377.705 203.312V216.509H381.32V203.312H377.705ZM395.22 194.131V216.509H398.949V194.131H395.22ZM384.375 209.911C384.375 211.364 384.672 212.607 385.264 213.64C385.857 214.673 386.642 215.457 387.617 215.993C388.592 216.528 389.625 216.796 390.715 216.796C391.825 216.796 392.8 216.519 393.642 215.964C394.503 215.41 395.172 214.616 395.65 213.583C396.147 212.55 396.396 211.326 396.396 209.911C396.396 208.476 396.147 207.252 395.65 206.238C395.172 205.206 394.503 204.412 393.642 203.857C392.8 203.302 391.825 203.025 390.715 203.025C389.625 203.025 388.592 203.293 387.617 203.828C386.642 204.364 385.857 205.148 385.264 206.181C384.672 207.195 384.375 208.438 384.375 209.911ZM388.219 209.911C388.219 209.126 388.382 208.447 388.707 207.874C389.032 207.3 389.472 206.86 390.027 206.554C390.582 206.248 391.175 206.095 391.806 206.095C392.36 206.095 392.896 206.248 393.412 206.554C393.948 206.841 394.378 207.271 394.703 207.845C395.048 208.419 395.22 209.107 395.22 209.911C395.22 210.714 395.048 211.403 394.703 211.976C394.378 212.55 393.948 212.99 393.412 213.296C392.896 213.583 392.36 213.726 391.806 213.726C391.175 213.726 390.582 213.573 390.027 213.267C389.472 212.961 389.032 212.521 388.707 211.948C388.382 211.374 388.219 210.695 388.219 209.911ZM401.634 209.911C401.634 211.269 401.949 212.474 402.58 213.526C403.231 214.558 404.101 215.362 405.191 215.935C406.301 216.509 407.553 216.796 408.95 216.796C410.346 216.796 411.589 216.509 412.679 215.935C413.789 215.362 414.659 214.558 415.29 213.526C415.94 212.474 416.265 211.269 416.265 209.911C416.265 208.534 415.94 207.329 415.29 206.296C414.659 205.263 413.789 204.46 412.679 203.886C411.589 203.312 410.346 203.025 408.95 203.025C407.553 203.025 406.301 203.312 405.191 203.886C404.101 204.46 403.231 205.263 402.58 206.296C401.949 207.329 401.634 208.534 401.634 209.911ZM405.421 209.911C405.421 209.165 405.574 208.505 405.88 207.931C406.205 207.357 406.635 206.917 407.171 206.611C407.706 206.305 408.299 206.152 408.95 206.152C409.6 206.152 410.193 206.305 410.728 206.611C411.264 206.917 411.685 207.357 411.991 207.931C412.316 208.505 412.478 209.165 412.478 209.911C412.478 210.657 412.316 211.316 411.991 211.89C411.685 212.445 411.264 212.885 410.728 213.21C410.193 213.516 409.6 213.669 408.95 213.669C408.299 213.669 407.706 213.516 407.171 213.21C406.635 212.885 406.205 212.445 405.88 211.89C405.574 211.316 405.421 210.657 405.421 209.911ZM422.697 203.312H419.053V216.509H422.697V203.312ZM426.57 207.185L428.263 204.029C427.995 203.685 427.641 203.427 427.201 203.255C426.78 203.083 426.331 202.996 425.853 202.996C425.164 202.996 424.495 203.245 423.844 203.742C423.194 204.221 422.668 204.871 422.266 205.693C421.865 206.497 421.664 207.424 421.664 208.476L422.697 209.509C422.697 208.878 422.773 208.342 422.926 207.902C423.098 207.443 423.347 207.09 423.672 206.841C423.997 206.592 424.389 206.468 424.848 206.468C425.231 206.468 425.547 206.535 425.795 206.669C426.063 206.784 426.321 206.956 426.57 207.185Z" fill="#22203D"/>
<path d="M58.0977 436.68C58.0977 436.68 200.114 436.68 214.961 436.68C228.333 436.68 243.549 430.16 246.685 423.73C248.898 419.111 244.563 416.938 227.872 417.119C211.18 417.3 215.422 423.911 218.281 427.081C224.368 433.873 242.166 441.117 253.324 438.129C264.483 435.14 290.119 432.695 302.292 430.612C315.664 428.348 337.428 423.005 343.237 395.747C349.047 368.488 348.678 353.184 353.566 339.237C359.007 323.752 390.73 308.719 403.917 336.883C413.6 357.44 408.436 385.061 408.436 385.061" stroke="#22203D" stroke-width="3" stroke-miterlimit="10"/>
<path d="M416.828 396.743C417.658 389.679 414.061 383.431 408.897 382.887C403.733 382.344 398.845 387.597 398.015 394.751C397.185 401.814 415.998 403.897 416.828 396.743Z" fill="#22203D"/>
<path d="M411.202 383.612C415.076 385.514 417.473 390.766 416.736 396.834C416.367 399.913 412.862 400.637 412.862 400.637C415.352 390.947 411.202 383.612 411.202 383.612Z" fill="#848286"/>
<path d="M410.465 399.55L409.45 407.61" stroke="#22203D" stroke-width="3" stroke-miterlimit="10"/>
<path d="M403.179 398.283L401.612 406.161" stroke="#22203D" stroke-width="3" stroke-miterlimit="10"/>
<path d="M497.703 358.165H483.04C478.706 358.165 475.202 354.723 475.202 350.467V341.139C475.202 336.883 478.706 333.442 483.04 333.442H497.703C502.038 333.442 505.542 336.883 505.542 341.139V350.467C505.542 354.633 502.038 358.165 497.703 358.165Z" fill="#22203D"/>
<path d="M495.859 358.165H481.196C476.862 358.165 473.358 354.723 473.358 350.467V341.139C473.358 336.883 476.862 333.442 481.196 333.442H495.859C500.193 333.442 503.698 336.883 503.698 341.139V350.467C503.698 354.633 500.193 358.165 495.859 358.165Z" fill="#E5E4E7"/>
<path d="M488.02 353.818C492.553 353.818 496.228 350.209 496.228 345.758C496.228 341.306 492.553 337.698 488.02 337.698C483.488 337.698 479.813 341.306 479.813 345.758C479.813 350.209 483.488 353.818 488.02 353.818Z" fill="#22203D"/>
<path d="M488.85 353.818C492.925 353.818 496.228 350.209 496.228 345.758C496.228 341.306 492.925 337.698 488.85 337.698C484.776 337.698 481.473 341.306 481.473 345.758C481.473 350.209 484.776 353.818 488.85 353.818Z" fill="#848286"/>
<path d="M485.807 347.478C486.622 347.478 487.283 346.708 487.283 345.758C487.283 344.808 486.622 344.037 485.807 344.037C484.992 344.037 484.332 344.808 484.332 345.758C484.332 346.708 484.992 347.478 485.807 347.478Z" fill="#22203D"/>
<path d="M491.156 347.478C491.971 347.478 492.631 346.708 492.631 345.758C492.631 344.808 491.971 344.037 491.156 344.037C490.341 344.037 489.68 344.808 489.68 345.758C489.68 346.708 490.341 347.478 491.156 347.478Z" fill="#22203D"/>
<path d="M400.413 317.413C400.413 322.665 396.54 329.729 389.439 329.819C379.94 329.91 378.28 322.937 378.28 322.937C378.28 322.937 375.883 329.819 365.923 329.367C359.376 329.095 356.148 322.393 356.148 317.503C356.148 309.624 366.108 303.195 378.28 303.195C390.453 303.195 400.413 309.534 400.413 317.413Z" fill="#E5E4E7"/>
<path d="M378.188 324.023C378.188 324.023 370.811 316.326 367.306 313.337C365.37 311.707 364.632 302.38 374.223 305.187C377.635 306.183 377.082 305.73 380.401 304.281C383.814 302.832 390.638 306.455 386.027 312.16C381.508 317.865 378.188 324.023 378.188 324.023Z" fill="#22203D"/>
<path d="M366.2 285.626C366.292 289.067 365.37 291.875 364.171 291.875C362.972 291.875 359.744 286.532 359.652 283.09C359.652 281.641 359.376 280.555 360.021 279.83C361.035 278.743 362.142 278.925 362.788 278.925C363.986 278.925 366.108 282.185 366.2 285.626Z" fill="#22203D"/>
<path d="M391.929 284.63C391.375 287.981 389.347 290.426 388.148 289.973C386.949 289.611 386.488 283.634 387.041 280.192C387.318 278.653 387.133 278.11 388.056 277.657C389.439 276.932 391.375 277.113 391.929 277.657C392.943 278.743 392.574 281.007 391.929 284.63Z" fill="#22203D"/>
<path d="M351.353 276.751C351.353 276.751 353.012 267.786 361.128 267.786" stroke="#22203D" stroke-miterlimit="10"/>
<path d="M399.675 275.121C399.675 275.121 397.093 266.427 388.978 267.242" stroke="#22203D" stroke-miterlimit="10"/>
<path d="M133.071 59.4979L127.815 70.7273L124.495 106.77C126.708 105.593 129.751 104.506 133.717 103.419C137.682 102.333 141.832 101.789 146.259 101.789C154.005 101.789 161.014 103.238 167.192 106.046C173.371 108.853 178.351 113.109 182.039 118.633C185.728 124.158 187.572 130.95 187.572 139.1C187.572 146.435 185.82 153.046 182.408 158.933C178.996 164.819 174.016 169.347 167.469 172.788C160.921 176.139 152.898 177.86 143.492 177.86C136.115 177.86 129.659 177.045 124.126 175.415C118.593 173.785 114.259 171.702 111.123 169.347C107.988 166.902 106.42 164.547 106.42 162.283C106.42 160.291 107.066 158.48 108.449 156.94C109.832 155.401 111.216 154.405 112.599 153.861C115.458 156.306 119.423 158.752 124.679 161.287C129.844 163.823 136.115 165.091 143.492 165.091C152.437 165.091 159.354 162.646 164.241 157.755C169.129 152.865 171.619 146.707 171.619 139.191C171.619 131.402 169.129 125.425 164.057 121.079C158.985 116.732 152.437 114.558 144.23 114.558C139.711 114.558 135.561 115.283 131.78 116.641C127.999 118 124.495 119.63 121.267 121.441C117.763 121.169 114.996 120.173 112.783 118.271C110.662 116.46 109.556 114.015 109.556 111.117C109.556 110.393 109.556 109.396 109.648 108.129C109.74 106.951 109.832 105.774 109.924 104.597L113.244 68.1916C113.521 65.5654 114.351 63.3919 115.734 61.7619C117.118 60.1318 119.239 59.4073 121.913 59.4073H133.071V59.4979ZM124.956 72.4479V59.4979H181.67C182.039 60.0412 182.408 60.8563 182.869 61.943C183.238 63.1203 183.423 64.2975 183.423 65.5654C183.423 67.5577 182.869 69.2783 181.855 70.5462C180.841 71.814 179.365 72.4479 177.428 72.4479H124.956Z" fill="#848286"/>
<path d="M265.036 177.86C255.999 177.86 247.976 175.686 241.059 171.249C234.143 166.902 228.702 160.201 224.829 151.235C220.956 142.27 219.019 131.04 219.019 117.366C219.019 102.786 221.232 91.1033 225.659 82.319C230.085 73.5347 235.71 67.1955 242.719 63.1203C249.728 59.1356 257.105 57.1433 265.036 57.1433C273.059 57.1433 280.621 59.1356 287.63 63.2108C294.638 67.286 300.356 73.7158 304.69 82.5906C309.024 91.4655 311.237 103.057 311.237 117.366C311.237 130.859 309.301 142.089 305.428 151.054C301.555 160.019 296.114 166.721 289.197 171.158C282.281 175.596 274.258 177.86 265.036 177.86ZM295.376 117.456C295.376 106.136 293.993 96.9897 291.226 90.1071C288.459 83.2246 284.771 78.1532 280.252 74.9836C275.733 71.814 270.661 70.1839 265.128 70.1839C259.687 70.1839 254.708 71.814 250.097 75.0742C245.486 78.3343 241.889 83.4057 239.123 90.3788C236.448 97.3519 235.065 106.408 235.065 117.456C235.065 132.67 237.739 144.443 242.996 152.593C248.344 160.834 255.722 164.91 265.128 164.91C274.719 164.91 282.189 160.834 287.445 152.593C292.702 144.353 295.376 132.67 295.376 117.456Z" fill="#848286"/>
<path d="M387.963 177.86C378.926 177.86 370.903 175.686 363.987 171.249C357.07 166.902 351.629 160.201 347.756 151.235C343.883 142.27 341.946 131.04 341.946 117.366C341.946 102.786 344.16 91.1033 348.586 82.319C353.013 73.5347 358.638 67.1955 365.646 63.1203C372.655 59.1356 380.033 57.1433 387.963 57.1433C395.986 57.1433 403.548 59.1356 410.557 63.2108C417.565 67.286 423.283 73.7158 427.617 82.5906C431.952 91.4655 434.165 103.057 434.165 117.366C434.165 130.859 432.228 142.089 428.355 151.054C424.482 160.019 419.041 166.721 412.125 171.158C405.208 175.596 397.093 177.86 387.963 177.86ZM418.211 117.456C418.211 106.136 416.828 96.9897 414.061 90.1071C411.295 83.2246 407.606 78.1532 403.087 74.9836C398.568 71.814 393.496 70.1839 387.963 70.1839C382.522 70.1839 377.543 71.814 372.932 75.0742C368.321 78.3343 364.724 83.4057 361.958 90.3788C359.283 97.3519 357.9 106.408 357.9 117.456C357.9 132.67 360.574 144.443 365.831 152.593C371.18 160.834 378.557 164.91 387.963 164.91C397.554 164.91 405.024 160.834 410.28 152.593C415.537 144.353 418.211 132.67 418.211 117.456Z" fill="#848286"/>
<path d="M125.651 53.702L120.395 64.9315L117.075 100.974C119.288 99.797 122.331 98.7103 126.297 97.6236C130.262 96.5369 134.412 95.9935 138.839 95.9935C146.585 95.9935 153.593 97.4425 159.772 100.25C165.951 103.057 170.931 107.314 174.619 112.838C178.308 118.362 180.152 125.154 180.152 133.304C180.152 140.64 178.4 147.25 174.988 153.137C171.576 159.023 166.596 163.551 160.049 166.993C153.501 170.343 145.478 172.064 136.072 172.064C128.694 172.064 122.239 171.249 116.706 169.619C111.173 167.989 106.839 165.906 103.703 163.551C100.568 161.106 99.0001 158.752 99.0001 156.488C99.0001 154.495 99.6456 152.684 101.029 151.145C102.412 149.605 103.795 148.609 105.179 148.065C108.038 150.511 112.003 152.956 117.259 155.491C122.424 158.027 128.694 159.295 136.072 159.295C145.017 159.295 151.934 156.85 156.821 151.96C161.709 147.069 164.199 140.911 164.199 133.395C164.199 125.607 161.709 119.63 156.637 115.283C151.565 110.936 145.017 108.762 136.81 108.762C132.291 108.762 128.141 109.487 124.36 110.845C120.579 112.204 117.075 113.834 113.847 115.645C110.343 115.373 107.576 114.377 105.363 112.475C103.242 110.664 102.136 108.219 102.136 105.321C102.136 104.597 102.136 103.601 102.228 102.333C102.32 101.155 102.412 99.9782 102.504 98.8009L105.824 62.3958C106.101 59.7696 106.931 57.5961 108.314 55.966C109.697 54.336 111.818 53.6115 114.493 53.6115H125.651V53.702ZM117.536 66.6521V53.702H174.25C174.619 54.2454 174.988 55.0604 175.449 56.1472C175.818 57.3244 176.003 58.5017 176.003 59.7696C176.003 61.7619 175.449 63.4825 174.435 64.7504C173.42 66.0182 171.945 66.6521 170.008 66.6521H117.536Z" fill="#FFCC10"/>
<path d="M257.616 172.064C248.578 172.064 240.555 169.89 233.639 165.453C226.723 161.106 221.282 154.405 217.409 145.439C213.535 136.474 211.599 125.244 211.599 111.57C211.599 96.9897 213.812 85.3075 218.239 76.5231C222.665 67.7388 228.29 61.3996 235.299 57.3244C242.308 53.3398 249.685 51.3475 257.616 51.3475C265.639 51.3475 273.201 53.3398 280.209 57.415C287.218 61.4902 292.936 67.92 297.27 76.7948C301.604 85.6697 303.817 97.2614 303.817 111.57C303.817 125.063 301.881 136.293 298.008 145.258C294.134 154.224 288.694 160.925 281.777 165.362C274.861 169.8 266.838 172.064 257.616 172.064ZM287.956 111.57C287.956 100.25 286.573 91.1033 283.806 84.2207C281.039 77.3382 277.351 72.2668 272.832 69.0972C268.313 65.9276 263.241 64.2976 257.708 64.2976C252.267 64.2976 247.287 65.9276 242.677 69.1878C238.066 72.448 234.469 77.5193 231.703 84.4924C229.028 91.4655 227.645 100.522 227.645 111.57C227.645 126.784 230.319 138.557 235.576 146.707C240.924 154.948 248.302 159.023 257.708 159.023C267.299 159.023 274.769 154.948 280.025 146.707C285.281 138.557 287.956 126.874 287.956 111.57Z" fill="#FFCC10"/>
<path d="M380.543 172.064C371.506 172.064 363.483 169.89 356.566 165.453C349.65 161.106 344.209 154.405 340.336 145.439C336.463 136.474 334.526 125.244 334.526 111.57C334.526 96.9897 336.739 85.3075 341.166 76.5231C345.592 67.7388 351.218 61.3996 358.226 57.3244C365.235 53.3398 372.612 51.3475 380.543 51.3475C388.566 51.3475 396.128 53.3398 403.137 57.415C410.145 61.4902 415.863 67.92 420.197 76.7948C424.531 85.6697 426.745 97.2614 426.745 111.57C426.745 125.063 424.808 136.293 420.935 145.258C417.062 154.224 411.621 160.925 404.704 165.362C397.788 169.8 389.673 172.064 380.543 172.064ZM410.791 111.57C410.791 100.25 409.408 91.1033 406.641 84.2207C403.874 77.3382 400.186 72.2668 395.667 69.0972C391.148 65.9276 386.076 64.2976 380.543 64.2976C375.102 64.2976 370.122 65.9276 365.512 69.1878C360.901 72.448 357.304 77.5193 354.538 84.4924C351.863 91.4655 350.48 100.522 350.48 111.57C350.48 126.784 353.154 138.557 358.411 146.707C363.759 154.948 371.137 159.023 380.543 159.023C390.134 159.023 397.604 154.948 402.86 146.707C408.116 138.557 410.791 126.874 410.791 111.57Z" fill="#FFCC10"/>
<path d="M191.88 9.36H195.92V4.8H186.76V44.8H195.92V40.24H191.88V9.36ZM203.431 36H217.551V31.16H203.431V36ZM203.431 12.84H217.551V8H203.431V12.84ZM203.431 23.52H216.751V18.76H203.431V23.52ZM199.751 8V36H205.271V8H199.751ZM229.548 22.96L237.948 36H244.708L235.588 22.96H229.548ZM223.188 8V36H228.908V8H223.188ZM226.668 12.88H232.228C233.242 12.88 234.108 13.0533 234.828 13.4C235.575 13.72 236.148 14.2 236.548 14.84C236.948 15.4533 237.148 16.2 237.148 17.08C237.148 17.96 236.948 18.72 236.548 19.36C236.148 19.9733 235.575 20.4533 234.828 20.8C234.108 21.12 233.242 21.28 232.228 21.28H226.668V25.84H232.588C234.802 25.84 236.682 25.4667 238.228 24.72C239.775 23.9733 240.962 22.9333 241.788 21.6C242.615 20.24 243.028 18.68 243.028 16.92C243.028 15.1333 242.615 13.5733 241.788 12.24C240.962 10.9067 239.775 9.86666 238.228 9.12C236.682 8.37333 234.802 8 232.588 8H226.668V12.88ZM254.353 22.96L262.753 36H269.513L260.393 22.96H254.353ZM247.993 8V36H253.713V8H247.993ZM251.473 12.88H257.033C258.046 12.88 258.913 13.0533 259.633 13.4C260.38 13.72 260.953 14.2 261.353 14.84C261.753 15.4533 261.953 16.2 261.953 17.08C261.953 17.96 261.753 18.72 261.353 19.36C260.953 19.9733 260.38 20.4533 259.633 20.8C258.913 21.12 258.046 21.28 257.033 21.28H251.473V25.84H257.393C259.606 25.84 261.486 25.4667 263.033 24.72C264.58 23.9733 265.766 22.9333 266.593 21.6C267.42 20.24 267.833 18.68 267.833 16.92C267.833 15.1333 267.42 13.5733 266.593 12.24C265.766 10.9067 264.58 9.86666 263.033 9.12C261.486 8.37333 259.606 8 257.393 8H251.473V12.88ZM277.238 22C277.238 20.2133 277.611 18.6267 278.358 17.24C279.104 15.8533 280.131 14.76 281.438 13.96C282.744 13.16 284.264 12.76 285.998 12.76C287.758 12.76 289.291 13.16 290.598 13.96C291.904 14.76 292.918 15.8533 293.638 17.24C294.358 18.6267 294.718 20.2133 294.718 22C294.718 23.7867 294.344 25.3733 293.598 26.76C292.878 28.1467 291.864 29.24 290.558 30.04C289.251 30.84 287.731 31.24 285.998 31.24C284.264 31.24 282.744 30.84 281.438 30.04C280.131 29.24 279.104 28.1467 278.358 26.76C277.611 25.3733 277.238 23.7867 277.238 22ZM271.198 22C271.198 24.1067 271.558 26.0667 272.278 27.88C272.998 29.6667 274.024 31.2267 275.358 32.56C276.691 33.8933 278.251 34.9333 280.038 35.68C281.851 36.4 283.838 36.76 285.998 36.76C288.158 36.76 290.131 36.4 291.918 35.68C293.731 34.9333 295.291 33.8933 296.598 32.56C297.931 31.2267 298.958 29.6667 299.678 27.88C300.424 26.0667 300.798 24.1067 300.798 22C300.798 19.8667 300.424 17.92 299.678 16.16C298.958 14.3733 297.918 12.8267 296.558 11.52C295.224 10.2133 293.664 9.21333 291.878 8.52C290.091 7.8 288.131 7.44 285.998 7.44C283.891 7.44 281.931 7.8 280.118 8.52C278.331 9.21333 276.771 10.2133 275.438 11.52C274.104 12.8267 273.064 14.3733 272.318 16.16C271.571 17.92 271.198 19.8667 271.198 22ZM311.58 22.96L319.98 36H326.74L317.62 22.96H311.58ZM305.22 8V36H310.94V8H305.22ZM308.7 12.88H314.26C315.273 12.88 316.14 13.0533 316.86 13.4C317.606 13.72 318.18 14.2 318.58 14.84C318.98 15.4533 319.18 16.2 319.18 17.08C319.18 17.96 318.98 18.72 318.58 19.36C318.18 19.9733 317.606 20.4533 316.86 20.8C316.14 21.12 315.273 21.28 314.26 21.28H308.7V25.84H314.62C316.833 25.84 318.713 25.4667 320.26 24.72C321.806 23.9733 322.993 22.9333 323.82 21.6C324.646 20.24 325.06 18.68 325.06 16.92C325.06 15.1333 324.646 13.5733 323.82 12.24C322.993 10.9067 321.806 9.86666 320.26 9.12C318.713 8.37333 316.833 8 314.62 8H308.7V12.88ZM331.824 40.24H327.784V44.8H336.944V4.8H327.784V9.36H331.824V40.24Z" fill="#22203D"/>
</g>
<defs>
<clipPath id="clip0_207_909">
<rect width="525" height="448" fill="white"/>
</clipPath>
</defs>
</svg>
