<svg width="386" height="81" viewBox="0 0 386 81" fill="none" xmlns="http://www.w3.org/2000/svg">
<path d="M143.393 58H139.17L126.479 33.5625L126.412 58H122.212V25.2969H126.435L139.125 49.6895L139.192 25.2969H143.393V58ZM149.367 45.624C149.367 43.8721 149.622 42.2474 150.131 40.75C150.64 39.2376 151.374 37.9274 152.332 36.8193C153.275 35.7113 154.428 34.8428 155.791 34.2139C157.154 33.57 158.688 33.248 160.396 33.248C162.118 33.248 163.66 33.57 165.022 34.2139C166.4 34.8428 167.568 35.7113 168.526 36.8193C169.47 37.9274 170.196 39.2376 170.705 40.75C171.214 42.2474 171.469 43.8721 171.469 45.624V46.1182C171.469 47.8701 171.214 49.4948 170.705 50.9922C170.196 52.4896 169.47 53.7923 168.526 54.9004C167.568 56.0085 166.408 56.877 165.045 57.5059C163.682 58.1348 162.147 58.4492 160.44 58.4492C158.718 58.4492 157.169 58.1348 155.791 57.5059C154.428 56.877 153.275 56.0085 152.332 54.9004C151.374 53.7923 150.64 52.4896 150.131 50.9922C149.622 49.4948 149.367 47.8701 149.367 46.1182V45.624ZM153.522 46.1182C153.522 47.3161 153.665 48.4616 153.949 49.5547C154.234 50.6328 154.668 51.5837 155.252 52.4072C155.821 53.2308 156.54 53.8822 157.408 54.3613C158.277 54.8405 159.287 55.0801 160.44 55.0801C161.578 55.0801 162.574 54.8405 163.428 54.3613C164.296 53.8822 165.022 53.2308 165.606 52.4072C166.175 51.5837 166.602 50.6328 166.887 49.5547C167.171 48.4616 167.313 47.3161 167.313 46.1182V45.624C167.313 44.4411 167.164 43.3105 166.864 42.2324C166.58 41.1393 166.153 40.181 165.584 39.3574C165 38.5339 164.274 37.8825 163.405 37.4033C162.552 36.9092 161.549 36.6621 160.396 36.6621C159.243 36.6621 158.239 36.9092 157.386 37.4033C156.532 37.8825 155.821 38.5339 155.252 39.3574C154.668 40.181 154.234 41.1393 153.949 42.2324C153.665 43.3105 153.522 44.4411 153.522 45.624V46.1182ZM188 27.8125V33.6973H197.254V36.9092H188V50.1162C188 51.0596 188.12 51.8382 188.359 52.4521C188.599 53.0661 188.928 53.5527 189.348 53.9121C189.767 54.2865 190.246 54.5485 190.785 54.6982C191.339 54.848 191.923 54.9229 192.537 54.9229C192.986 54.9229 193.451 54.9004 193.93 54.8555C194.409 54.7956 194.881 54.7282 195.345 54.6533C195.794 54.5785 196.213 54.5036 196.603 54.4287C197.007 54.3389 197.336 54.264 197.591 54.2041L198.175 57.1465C197.83 57.3561 197.411 57.5433 196.917 57.708C196.423 57.8577 195.884 57.985 195.3 58.0898C194.716 58.2096 194.094 58.2995 193.436 58.3594C192.792 58.4193 192.148 58.4492 191.504 58.4492C190.426 58.4492 189.415 58.2995 188.472 58C187.543 57.6855 186.735 57.1914 186.046 56.5176C185.357 55.8587 184.811 55.0052 184.406 53.957C184.017 52.8939 183.822 51.6136 183.822 50.1162V36.9092H177.443V33.6973H183.822V27.8125H188ZM206.44 33.6973H218.861V54.4062H226.79V58H206.44V54.4062H214.706V37.3135H206.44V33.6973ZM214.167 27.3184C214.167 26.959 214.219 26.6221 214.324 26.3076C214.444 25.9932 214.624 25.7236 214.863 25.499C215.058 25.3044 215.305 25.1546 215.604 25.0498C215.919 24.93 216.271 24.8701 216.66 24.8701C217.049 24.8701 217.394 24.93 217.693 25.0498C217.993 25.1546 218.24 25.3044 218.435 25.499C218.674 25.7087 218.854 25.9707 218.974 26.2852C219.093 26.5996 219.153 26.944 219.153 27.3184C219.153 27.9922 218.944 28.5537 218.524 29.0029C218.105 29.4521 217.484 29.6768 216.66 29.6768C215.822 29.6768 215.193 29.4521 214.773 29.0029C214.369 28.5537 214.167 27.9922 214.167 27.3184ZM239.615 58V36.9092H232.922V33.6973H239.615V31.9902C239.615 30.4329 239.84 29.0703 240.289 27.9023C240.753 26.7194 241.405 25.7311 242.243 24.9375C243.067 24.1439 244.062 23.5449 245.23 23.1406C246.398 22.7363 247.701 22.5342 249.139 22.5342C249.738 22.5342 250.329 22.5716 250.913 22.6465C251.497 22.7064 252.074 22.7887 252.643 22.8936C253.017 22.9684 253.391 23.0508 253.766 23.1406C254.14 23.2155 254.522 23.3053 254.911 23.4102L254.417 26.8467C253.803 26.637 253.084 26.4574 252.261 26.3076C251.452 26.1429 250.584 26.0605 249.655 26.0605C248.712 26.0605 247.873 26.1803 247.14 26.4199C246.421 26.6445 245.822 26.9889 245.343 27.4531C244.834 27.9323 244.444 28.5537 244.175 29.3174C243.92 30.0811 243.793 30.972 243.793 31.9902V33.6973H253.159V36.9092H243.793V58H239.615ZM262.997 67.8154C262.608 67.8154 262.151 67.7705 261.627 67.6807C261.103 67.5908 260.706 67.516 260.437 67.4561L261.11 64.0645C261.485 64.0944 261.852 64.1169 262.211 64.1318C262.585 64.1618 262.877 64.1768 263.087 64.1768C263.656 64.1768 264.173 64.0195 264.637 63.7051C265.116 63.3906 265.543 63.0163 265.917 62.582C266.276 62.1478 266.583 61.6986 266.838 61.2344C267.107 60.7702 267.317 60.3883 267.467 60.0889L269.129 56.8545L258.662 33.6973H263.312L269.982 49.375L271.061 52.3174L272.206 49.4648L278.473 33.6973H283.122L270.791 61.751C270.507 62.3799 270.14 63.0462 269.69 63.75C269.256 64.4538 268.725 65.1051 268.096 65.7041C267.467 66.3031 266.733 66.8047 265.895 67.209C265.056 67.6133 264.09 67.8154 262.997 67.8154ZM309.267 58H302.978L293.881 36.9092V58H287.524V25.2969H293.881L302.91 46.2979L302.933 25.2969H309.267V58ZM314.702 45.624C314.702 43.8571 314.957 42.2249 315.466 40.7275C315.975 39.2152 316.724 37.9049 317.712 36.7969C318.685 35.6888 319.876 34.8203 321.283 34.1914C322.706 33.5625 324.33 33.248 326.157 33.248C327.984 33.248 329.609 33.5625 331.031 34.1914C332.454 34.8203 333.659 35.6888 334.647 36.7969C335.621 37.9049 336.362 39.2152 336.871 40.7275C337.38 42.2249 337.635 43.8571 337.635 45.624V46.0957C337.635 47.8776 337.38 49.5247 336.871 51.0371C336.362 52.5345 335.621 53.8372 334.647 54.9453C333.674 56.0534 332.476 56.9219 331.054 57.5508C329.631 58.1647 328.014 58.4717 326.202 58.4717C324.375 58.4717 322.743 58.1647 321.306 57.5508C319.883 56.9219 318.685 56.0534 317.712 54.9453C316.724 53.8372 315.975 52.5345 315.466 51.0371C314.957 49.5247 314.702 47.8776 314.702 46.0957V45.624ZM320.946 46.0957C320.946 47.1139 321.044 48.0723 321.238 48.9707C321.433 49.8542 321.74 50.6253 322.159 51.2842C322.578 51.958 323.118 52.4896 323.776 52.8789C324.45 53.2682 325.259 53.4629 326.202 53.4629C327.116 53.4629 327.902 53.2682 328.561 52.8789C329.219 52.4896 329.758 51.958 330.178 51.2842C330.582 50.6253 330.882 49.8542 331.076 48.9707C331.271 48.0723 331.368 47.1139 331.368 46.0957V45.624C331.368 44.6357 331.271 43.6999 331.076 42.8164C330.882 41.9329 330.582 41.1543 330.178 40.4805C329.758 39.8066 329.219 39.2751 328.561 38.8857C327.902 38.4964 327.101 38.3018 326.157 38.3018C325.229 38.3018 324.435 38.4964 323.776 38.8857C323.118 39.2751 322.578 39.8066 322.159 40.4805C321.74 41.1543 321.433 41.9329 321.238 42.8164C321.044 43.6999 320.946 44.6357 320.946 45.624V46.0957ZM344.979 58L340.622 33.6973H346.327L348.146 48.1396L348.438 50.4531L348.865 48.1396L351.493 33.6973H355.671L358.299 48.0723L358.726 50.3857L359.04 48.0273L360.837 33.6973H366.564L362.207 58H356.727L354.054 45.0176L353.537 42.5469L353.043 45.0176L350.46 58H344.979Z" fill="black"/>
<g clip-path="url(#clip0_1_25)">
<path d="M13.9189 48.9006C15.4654 46.0055 14.992 42.4459 12.7353 40.0729C9.37385 36.5291 7.57479 32.2734 7.57479 27.8438C7.57479 17.7979 17.6432 7.59375 32.8248 7.59375C48.0064 7.59375 58.0748 17.7979 58.0748 27.8438C58.0748 37.8896 48.0064 48.0938 32.8248 48.0938C30.7574 48.0938 28.7532 47.8881 26.8595 47.5242C25.2182 47.2078 23.5139 47.4293 22.0146 48.1887C21.3676 48.5209 20.7048 48.8373 20.0262 49.1379C17.5012 50.277 14.8342 51.2736 12.1514 51.9855C12.5932 51.2578 13.0035 50.5459 13.3981 49.834C13.5717 49.5334 13.7453 49.217 13.9031 48.9006H13.9189ZM-0.000207391 27.8438C-0.000207391 34.4566 2.71417 40.5158 7.24339 45.2936C7.10135 45.5625 6.94354 45.8473 6.80151 46.1004C5.17604 49.0113 3.28229 51.8748 1.02557 54.3428C-0.0159886 55.4502 -0.28427 57.0639 0.299636 58.4402C0.915105 59.8482 2.27229 60.75 3.78729 60.75C10.5732 60.75 17.4381 58.6459 23.1509 56.0514C23.9084 55.7033 24.6659 55.3395 25.3918 54.9756C27.7748 55.4502 30.2682 55.6875 32.8248 55.6875C50.9574 55.6875 65.6498 43.2211 65.6498 27.8438C65.6498 12.4664 50.9574 0 32.8248 0C14.6921 0 -0.000207391 12.4664 -0.000207391 27.8438ZM68.1748 75.9375C70.7314 75.9375 73.209 75.6844 75.6078 75.2256C76.3337 75.5895 77.0912 75.9533 77.8487 76.3014C83.5615 78.8959 90.4263 81 97.2123 81C98.7273 81 100.084 80.0982 100.684 78.7061C101.284 77.3139 101 75.7002 99.9582 74.6086C97.7173 72.1406 95.8235 69.2771 94.1823 66.3662C94.0403 66.0973 93.8824 65.8283 93.7404 65.5594C98.2854 60.7658 101 54.7066 101 48.0938C101 33.1594 87.1281 20.9619 69.7214 20.2816C70.3684 22.6863 70.6998 25.2176 70.6998 27.8438V27.9387C84.461 28.9986 93.4248 38.6174 93.4248 48.0938C93.4248 52.5234 91.6257 56.7791 88.2643 60.307C86.0076 62.6801 85.5342 66.2555 87.0807 69.1348C87.2543 69.4512 87.4279 69.7676 87.5857 70.0682C87.9803 70.7801 88.4064 71.492 88.8324 72.2197C86.1496 71.5078 83.4826 70.527 80.9576 69.3721C80.279 69.0715 79.6162 68.7551 78.9692 68.4229C77.4699 67.6635 75.7656 67.442 74.1243 67.7584C72.2148 68.1381 70.2264 68.3279 68.159 68.3279C58.422 68.3279 50.7996 64.1355 46.5703 58.4719C44.0453 59.3262 41.394 59.959 38.6796 60.3387C44.0295 69.5777 55.2342 75.9375 68.1748 75.9375Z" fill="black"/>
</g>
<defs>
<clipPath id="clip0_1_25">
<rect width="101" height="81" fill="white"/>
</clipPath>
</defs>
</svg>
